<svg width="331" height="279" viewBox="0 0 331 279" fill="none" xmlns="http://www.w3.org/2000/svg">
<g clip-path="url(#clip0_23_3)">
<rect x="-10" y="-27" width="368" height="437" fill="#F1F7FF"/>
<path d="M274.455 225.142L164.641 175.018L221.186 51.1794L331 101.303L274.455 225.142Z" fill="#F2F2F2"/>
<path d="M291.184 153.198L208.051 115.253C207.895 115.182 207.773 115.051 207.713 114.89C207.653 114.728 207.659 114.55 207.73 114.393C207.802 114.237 207.933 114.115 208.094 114.055C208.255 113.995 208.434 114.001 208.59 114.073L291.723 152.017C291.879 152.089 292.001 152.22 292.061 152.381C292.121 152.542 292.115 152.721 292.044 152.877C291.972 153.034 291.841 153.155 291.68 153.216C291.519 153.276 291.34 153.269 291.184 153.198Z" fill="white"/>
<path d="M295.806 143.074L212.673 105.129C212.596 105.093 212.526 105.043 212.468 104.981C212.41 104.918 212.365 104.845 212.335 104.765C212.305 104.686 212.291 104.601 212.294 104.515C212.297 104.43 212.317 104.347 212.353 104.269C212.388 104.192 212.438 104.122 212.501 104.064C212.563 104.006 212.636 103.96 212.716 103.931C212.796 103.901 212.881 103.887 212.966 103.89C213.051 103.893 213.135 103.913 213.212 103.948L296.345 141.893C296.422 141.928 296.492 141.979 296.55 142.041C296.608 142.103 296.654 142.177 296.683 142.256C296.713 142.336 296.727 142.421 296.724 142.506C296.721 142.592 296.701 142.675 296.666 142.753C296.63 142.83 296.58 142.9 296.518 142.958C296.455 143.016 296.382 143.061 296.302 143.091C296.222 143.121 296.137 143.135 296.052 143.132C295.967 143.129 295.883 143.109 295.806 143.074Z" fill="white"/>
<path d="M300.429 132.949L217.296 95.0046C217.219 94.9692 217.149 94.9189 217.091 94.8565C217.033 94.7941 216.988 94.721 216.958 94.6411C216.928 94.5613 216.914 94.4764 216.917 94.3912C216.92 94.3061 216.94 94.2223 216.976 94.1448C217.011 94.0673 217.061 93.9975 217.124 93.9394C217.186 93.8813 217.259 93.8361 217.339 93.8063C217.419 93.7765 217.504 93.7628 217.589 93.7658C217.674 93.7688 217.758 93.7886 217.836 93.824L300.968 131.769C301.124 131.84 301.246 131.971 301.306 132.132C301.365 132.293 301.359 132.472 301.288 132.628C301.216 132.784 301.086 132.906 300.925 132.966C300.764 133.027 300.585 133.02 300.429 132.949Z" fill="white"/>
<path d="M305.052 122.825L221.92 84.8803C221.842 84.8449 221.772 84.7946 221.714 84.7322C221.656 84.6699 221.611 84.5967 221.581 84.5169C221.551 84.437 221.537 84.3521 221.54 84.2669C221.543 84.1818 221.563 84.0981 221.599 84.0205C221.634 83.943 221.684 83.8732 221.747 83.8151C221.809 83.7571 221.882 83.7119 221.962 83.6821C222.042 83.6523 222.127 83.6385 222.212 83.6415C222.297 83.6446 222.381 83.6643 222.459 83.6997L305.591 121.645C305.668 121.68 305.738 121.73 305.796 121.793C305.854 121.855 305.9 121.928 305.93 122.008C305.959 122.088 305.973 122.173 305.97 122.258C305.967 122.343 305.947 122.427 305.912 122.504C305.876 122.582 305.826 122.652 305.764 122.71C305.701 122.768 305.628 122.813 305.548 122.843C305.468 122.873 305.384 122.886 305.298 122.883C305.213 122.88 305.129 122.86 305.052 122.825Z" fill="white"/>
<path d="M287.006 162.347L203.874 124.403C203.796 124.367 203.726 124.317 203.668 124.254C203.61 124.192 203.565 124.119 203.535 124.039C203.505 123.959 203.492 123.874 203.495 123.789C203.498 123.704 203.517 123.62 203.553 123.543C203.588 123.465 203.638 123.395 203.701 123.337C203.763 123.279 203.836 123.234 203.916 123.204C203.996 123.174 204.081 123.161 204.166 123.164C204.251 123.167 204.335 123.187 204.413 123.222L287.545 161.167C287.702 161.238 287.823 161.369 287.884 161.53C287.944 161.691 287.937 161.87 287.866 162.026C287.794 162.183 287.664 162.305 287.502 162.365C287.341 162.425 287.163 162.419 287.006 162.347V162.347Z" fill="white"/>
<path d="M300.887 107.974L235.95 78.3343C235.585 78.1769 235.29 77.8908 235.122 77.5303C234.954 77.1698 234.924 76.76 235.038 76.3789C235.108 76.1718 235.22 75.9817 235.368 75.8208C235.516 75.6599 235.696 75.5319 235.897 75.445C236.098 75.3582 236.314 75.3144 236.533 75.3165C236.751 75.3186 236.967 75.3666 237.166 75.4573L302.083 105.088C302.455 105.246 302.756 105.536 302.927 105.903C303.097 106.269 303.127 106.686 303.009 107.072C302.936 107.277 302.823 107.464 302.674 107.622C302.526 107.78 302.346 107.906 302.147 107.99C301.947 108.075 301.732 108.118 301.515 108.115C301.298 108.112 301.085 108.064 300.887 107.974Z" fill="white"/>
<path d="M51.0273 101.303L160.842 51.1794L217.386 175.018L107.572 225.142L51.0273 101.303Z" fill="#F2F2F2"/>
<path d="M90.8433 153.198L173.976 115.253C174.053 115.218 174.123 115.167 174.181 115.105C174.239 115.043 174.284 114.969 174.314 114.89C174.344 114.81 174.358 114.725 174.355 114.64C174.352 114.555 174.332 114.471 174.297 114.393C174.261 114.316 174.211 114.246 174.149 114.188C174.086 114.13 174.013 114.085 173.933 114.055C173.853 114.025 173.768 114.011 173.683 114.014C173.598 114.017 173.514 114.037 173.437 114.073L90.3043 152.017C90.2268 152.053 90.157 152.103 90.0989 152.165C90.0408 152.228 89.9955 152.301 89.9658 152.381C89.936 152.461 89.9222 152.545 89.9252 152.631C89.9282 152.716 89.948 152.8 89.9834 152.877C90.0188 152.955 90.0691 153.024 90.1315 153.082C90.1939 153.141 90.2671 153.186 90.3469 153.216C90.4268 153.245 90.5117 153.259 90.5969 153.256C90.6821 153.253 90.7658 153.233 90.8433 153.198Z" fill="white"/>
<path d="M86.2213 143.074L169.354 105.129C169.51 105.057 169.632 104.927 169.692 104.765C169.752 104.604 169.746 104.426 169.675 104.269C169.603 104.113 169.472 103.991 169.311 103.931C169.15 103.87 168.971 103.877 168.815 103.948L85.6822 141.893C85.6047 141.928 85.5349 141.979 85.4768 142.041C85.4187 142.103 85.3735 142.177 85.3437 142.256C85.3139 142.336 85.3001 142.421 85.3031 142.506C85.3062 142.592 85.326 142.675 85.3614 142.753C85.3967 142.83 85.4471 142.9 85.5094 142.958C85.5718 143.016 85.645 143.061 85.7249 143.091C85.8047 143.121 85.8896 143.135 85.9748 143.132C86.06 143.129 86.1438 143.109 86.2213 143.074H86.2213Z" fill="white"/>
<path d="M81.5986 132.949L164.731 95.0046C164.888 94.9331 165.009 94.8024 165.07 94.6411C165.13 94.4799 165.123 94.3014 165.052 94.1448C164.98 93.9882 164.85 93.8665 164.688 93.8063C164.527 93.7462 164.348 93.7525 164.192 93.824L81.0595 131.769C80.9031 131.84 80.7815 131.971 80.7215 132.132C80.6614 132.293 80.6678 132.472 80.7393 132.628C80.8107 132.785 80.9413 132.906 81.1025 132.967C81.2636 133.027 81.442 133.021 81.5986 132.949Z" fill="white"/>
<path d="M76.9752 122.825L160.108 84.8803C160.185 84.8449 160.255 84.7946 160.313 84.7322C160.371 84.6699 160.416 84.5967 160.446 84.5169C160.476 84.437 160.49 84.3521 160.487 84.2669C160.484 84.1818 160.464 84.0981 160.428 84.0205C160.393 83.943 160.343 83.8732 160.28 83.8151C160.218 83.7571 160.145 83.7118 160.065 83.6821C159.985 83.6523 159.9 83.6385 159.815 83.6415C159.73 83.6446 159.646 83.6643 159.569 83.6997L76.4361 121.645C76.2795 121.716 76.1578 121.847 76.0976 122.008C76.0374 122.169 76.0438 122.348 76.1153 122.504C76.1867 122.661 76.3175 122.783 76.4788 122.843C76.64 122.903 76.8186 122.897 76.9752 122.825H76.9752Z" fill="white"/>
<path d="M95.0211 162.347L178.153 124.403C178.31 124.331 178.432 124.2 178.492 124.039C178.552 123.878 178.546 123.699 178.474 123.543C178.403 123.386 178.272 123.264 178.111 123.204C177.95 123.144 177.771 123.15 177.614 123.222L94.482 161.167C94.4045 161.202 94.3347 161.252 94.2766 161.315C94.2185 161.377 94.1733 161.45 94.1435 161.53C94.1137 161.61 94.0999 161.695 94.1029 161.78C94.106 161.865 94.1258 161.949 94.1612 162.026C94.1966 162.104 94.2469 162.174 94.3092 162.232C94.3716 162.29 94.4448 162.335 94.5247 162.365C94.6045 162.395 94.6895 162.408 94.7746 162.405C94.8598 162.402 94.9435 162.383 95.0211 162.347H95.0211Z" fill="white"/>
<path d="M81.1388 107.974L146.076 78.3343C146.441 78.1769 146.736 77.8908 146.904 77.5303C147.073 77.1698 147.102 76.76 146.988 76.3789C146.918 76.1718 146.806 75.9817 146.658 75.8208C146.51 75.6599 146.33 75.5319 146.129 75.445C145.929 75.3582 145.712 75.3144 145.493 75.3165C145.275 75.3186 145.059 75.3666 144.86 75.4573L79.9429 105.088C79.5708 105.246 79.2704 105.536 79.0996 105.903C78.9288 106.269 78.8996 106.686 79.0177 107.072C79.0897 107.277 79.2036 107.464 79.3519 107.622C79.5003 107.78 79.68 107.906 79.8796 107.99C80.0791 108.075 80.2941 108.118 80.5109 108.115C80.7277 108.112 80.9415 108.064 81.1388 107.974Z" fill="white"/>
<path d="M10.9777 247.53C11.6711 236.792 17.6551 225.897 27.6169 221.825C24.2581 233.034 24.9731 245.07 29.6355 255.803C31.4486 259.936 33.8956 264.344 32.6787 268.69C31.9215 271.394 29.805 273.554 27.3798 274.97C24.9544 276.385 22.2152 277.154 19.51 277.909L18.9971 278.387C14.064 268.824 10.2844 258.268 10.9777 247.53Z" fill="#F0F0F0"/>
<path d="M27.7293 222.021C22.2018 229.005 19.0159 237.554 18.6242 246.451C18.5059 248.365 18.69 250.286 19.1699 252.143C19.6958 253.936 20.6925 255.556 22.0564 256.835C23.3041 258.052 24.7215 259.153 25.6515 260.652C26.1162 261.426 26.4119 262.29 26.5192 263.187C26.6264 264.084 26.5429 264.994 26.274 265.856C25.6599 268.022 24.3041 269.838 22.9164 271.568C21.3757 273.489 19.7449 275.459 19.1874 277.918C19.1199 278.216 18.6616 278.094 18.729 277.796C19.699 273.519 23.6398 270.888 25.362 266.985C26.1657 265.164 26.4253 263.09 25.4629 261.275C24.6213 259.688 23.1607 258.552 21.8867 257.33C20.5379 256.103 19.5102 254.564 18.8934 252.848C18.3205 251.021 18.0626 249.111 18.1308 247.198C18.2157 242.89 18.9775 238.621 20.3886 234.549C21.9732 229.893 24.3428 225.542 27.3949 221.684C27.5839 221.446 27.917 221.784 27.7293 222.021V222.021Z" fill="white"/>
<path d="M18.5816 243.579C17.0974 243.31 15.7569 242.523 14.7996 241.358C13.8422 240.193 13.3304 238.725 13.3554 237.217C13.3569 237.156 13.3823 237.097 13.4262 237.054C13.47 237.011 13.5289 236.987 13.5904 236.986C13.652 236.986 13.7113 237.009 13.7559 237.051C13.8006 237.093 13.8271 237.151 13.8298 237.213C13.8039 238.617 14.2809 239.984 15.1746 241.067C16.0683 242.151 17.3198 242.879 18.7034 243.12C19.004 243.173 18.8805 243.631 18.5816 243.579L18.5816 243.579Z" fill="white"/>
<path d="M21.3429 256.301C23.8919 254.566 25.6934 251.935 26.3883 248.932C26.4569 248.634 26.9152 248.756 26.8467 249.053C26.1178 252.177 24.2375 254.912 21.581 256.711C21.3277 256.882 21.091 256.471 21.3429 256.301Z" fill="white"/>
<path d="M22.439 230.315C22.9916 230.539 23.5911 230.621 24.1837 230.556C24.7762 230.491 25.3432 230.279 25.8337 229.94C26.0848 229.766 26.3212 230.177 26.0718 230.351C25.5281 230.722 24.9016 230.955 24.2471 231.029C23.5926 231.103 22.93 231.015 22.3172 230.774C22.2576 230.756 22.207 230.716 22.1757 230.662C22.1444 230.608 22.1348 230.544 22.1489 230.483C22.1653 230.423 22.205 230.371 22.2593 230.34C22.3137 230.308 22.3782 230.299 22.439 230.315Z" fill="white"/>
<path d="M59.7391 239.026C59.5855 239.139 59.4318 239.252 59.2782 239.37C57.2205 240.905 55.2908 242.604 53.5083 244.451C53.3682 244.592 53.2284 244.737 53.0926 244.881C48.8456 249.377 45.4705 254.623 43.1387 260.351C42.2129 262.631 41.462 264.979 40.8925 267.373C40.1061 270.679 39.5165 274.327 37.736 277.099C37.5534 277.39 37.3531 277.67 37.1359 277.936L19.6204 278.975C19.5794 278.958 19.5384 278.944 19.4973 278.926L18.7998 279C18.8206 278.874 18.8448 278.745 18.8655 278.619C18.8773 278.546 18.8929 278.473 18.9046 278.4C18.9137 278.352 18.9229 278.303 18.9283 278.259C18.9313 278.242 18.9344 278.226 18.9376 278.214C18.943 278.169 18.9528 278.129 18.9584 278.088C19.0917 277.363 19.2305 276.637 19.3745 275.911C19.3743 275.907 19.3742 275.907 19.3779 275.902C20.4895 270.371 22.0728 264.884 24.4386 259.812C24.5099 259.66 24.5807 259.503 24.6599 259.35C25.739 257.07 27.0027 254.881 28.4384 252.807C29.2282 251.673 30.0749 250.581 30.9752 249.533C33.3066 246.83 36.0488 244.511 39.1012 242.66C45.1866 238.971 52.3842 237.269 59.2182 238.896C59.393 238.938 59.5641 238.98 59.7391 239.026Z" fill="#F0F0F0"/>
<path d="M59.7128 239.25C51.0934 241.5 43.4021 246.407 37.7313 253.276C36.4842 254.733 35.4747 256.377 34.7398 258.149C34.0797 259.897 33.8999 261.791 34.2192 263.632C34.4825 265.355 34.9513 267.087 34.791 268.844C34.6956 269.743 34.4114 270.61 33.957 271.391C33.5026 272.172 32.8883 272.847 32.1544 273.374C30.3598 274.734 28.1836 275.368 26.0338 275.914C23.647 276.52 21.1582 277.112 19.2326 278.739C18.9993 278.936 18.707 278.563 18.9399 278.366C22.29 275.535 27.0207 275.807 30.746 273.727C32.4843 272.757 33.9406 271.257 34.2651 269.228C34.5489 267.455 34.067 265.668 33.7854 263.926C33.4475 262.134 33.5536 260.286 34.0945 258.545C34.7368 256.742 35.6814 255.061 36.8876 253.575C39.5499 250.186 42.7287 247.237 46.3074 244.835C50.3766 242.071 54.8886 240.023 59.6484 238.78C59.943 238.704 60.0055 239.174 59.7128 239.25Z" fill="white"/>
<path d="M39.4272 250.957C38.4037 249.849 37.8074 248.414 37.7448 246.907C37.6821 245.4 38.1571 243.92 39.0851 242.731C39.2737 242.492 39.6554 242.773 39.4665 243.014C38.6004 244.119 38.158 245.498 38.2193 246.901C38.2805 248.303 38.8413 249.638 39.8004 250.664C40.0086 250.887 39.6342 251.179 39.4272 250.957H39.4272Z" fill="white"/>
<path d="M33.9709 262.776C37.0505 262.926 40.0734 261.909 42.4367 259.93C42.6707 259.733 42.9631 260.107 42.7294 260.303C40.2662 262.359 37.1183 263.41 33.9139 263.247C33.6085 263.231 33.6671 262.761 33.9709 262.776Z" fill="white"/>
<path d="M50.494 242.688C50.8007 243.2 51.2295 243.627 51.742 243.931C52.2545 244.235 52.8346 244.408 53.4302 244.433C53.7356 244.445 53.6767 244.915 53.3732 244.904C52.7153 244.873 52.0749 244.682 51.5079 244.347C50.941 244.012 50.4647 243.543 50.1207 242.981C50.0839 242.931 50.0675 242.869 50.075 242.807C50.0825 242.745 50.1132 242.688 50.161 242.648C50.2106 242.61 50.2734 242.592 50.3358 242.6C50.3981 242.607 50.455 242.639 50.494 242.688Z" fill="white"/>
<path d="M272.717 226.183H108.512V41.0063H272.717V226.183Z" fill="white"/>
<path d="M272.717 226.183H108.512V41.0063H272.717V226.183ZM109.395 225.3H271.834V41.889H109.395L109.395 225.3Z" fill="#CACACA"/>
<path d="M252.768 127.71H128.46C128.344 127.71 128.229 127.688 128.122 127.643C128.015 127.599 127.918 127.534 127.836 127.452C127.754 127.37 127.689 127.273 127.644 127.166C127.6 127.058 127.577 126.944 127.577 126.828C127.577 126.712 127.6 126.597 127.644 126.49C127.689 126.383 127.754 126.286 127.836 126.204C127.918 126.122 128.015 126.057 128.122 126.012C128.229 125.968 128.344 125.945 128.46 125.945H252.768C253.002 125.945 253.226 126.038 253.392 126.204C253.558 126.369 253.651 126.594 253.651 126.828C253.651 127.062 253.558 127.286 253.392 127.452C253.226 127.617 253.002 127.71 252.768 127.71Z" fill="#E4E4E4"/>
<path d="M252.768 112.572H128.46C128.226 112.572 128.001 112.479 127.836 112.313C127.67 112.148 127.577 111.923 127.577 111.689C127.577 111.455 127.67 111.23 127.836 111.065C128.001 110.899 128.226 110.806 128.46 110.806H252.768C253.002 110.806 253.226 110.899 253.392 111.065C253.558 111.23 253.651 111.455 253.651 111.689C253.651 111.923 253.558 112.148 253.392 112.313C253.226 112.479 253.002 112.572 252.768 112.572Z" fill="#E4E4E4"/>
<path d="M252.768 97.4328H128.46C128.344 97.4328 128.229 97.41 128.122 97.3656C128.015 97.3213 127.918 97.2562 127.836 97.1743C127.754 97.0923 127.689 96.995 127.644 96.8879C127.6 96.7808 127.577 96.6661 127.577 96.5501C127.577 96.4342 127.6 96.3194 127.644 96.2124C127.689 96.1053 127.754 96.008 127.836 95.926C127.918 95.844 128.015 95.779 128.122 95.7347C128.229 95.6903 128.344 95.6675 128.46 95.6675H252.768C253.002 95.6675 253.226 95.7605 253.392 95.926C253.558 96.0915 253.651 96.316 253.651 96.5501C253.651 96.7842 253.558 97.0088 253.392 97.1743C253.226 97.3398 253.002 97.4328 252.768 97.4328Z" fill="#E4E4E4"/>
<path d="M252.768 82.2941H128.46C128.226 82.2941 128.001 82.2012 127.836 82.0356C127.67 81.8701 127.577 81.6456 127.577 81.4115C127.577 81.1774 127.67 80.9529 127.836 80.7873C128.001 80.6218 128.226 80.5288 128.46 80.5288H252.768C253.002 80.5288 253.226 80.6218 253.392 80.7873C253.558 80.9529 253.651 81.1774 253.651 81.4115C253.651 81.6456 253.558 81.8701 253.392 82.0356C253.226 82.2012 253.002 82.2941 252.768 82.2941Z" fill="#E4E4E4"/>
<path d="M252.768 141.392H128.46C128.226 141.392 128.001 141.299 127.836 141.133C127.67 140.968 127.577 140.743 127.577 140.509C127.577 140.275 127.67 140.051 127.836 139.885C128.001 139.719 128.226 139.626 128.46 139.626H252.768C253.002 139.626 253.226 139.719 253.392 139.885C253.558 140.051 253.651 140.275 253.651 140.509C253.651 140.743 253.558 140.968 253.392 141.133C253.226 141.299 253.002 141.392 252.768 141.392Z" fill="#E4E4E4"/>
<path d="M252.768 209.311H128.46C128.226 209.311 128.001 209.219 127.836 209.053C127.67 208.887 127.577 208.663 127.577 208.429C127.577 208.195 127.67 207.97 127.836 207.805C128.001 207.639 128.226 207.546 128.46 207.546H252.768C253.002 207.546 253.226 207.639 253.392 207.805C253.558 207.97 253.651 208.195 253.651 208.429C253.651 208.663 253.558 208.887 253.392 209.053C253.226 209.219 253.002 209.311 252.768 209.311Z" fill="#E4E4E4"/>
<path d="M222.99 195.143H158.238C157.805 195.142 157.39 194.97 157.084 194.664C156.778 194.358 156.606 193.943 156.605 193.51V155.428C156.606 154.995 156.778 154.58 157.084 154.274C157.39 153.968 157.805 153.796 158.238 153.795H222.99C223.423 153.796 223.838 153.968 224.144 154.274C224.45 154.58 224.622 154.995 224.623 155.428V193.51C224.622 193.943 224.45 194.358 224.144 194.664C223.838 194.97 223.423 195.142 222.99 195.143Z" fill="white"/>
<path d="M201.366 173.386C201.037 173.033 200.639 172.75 200.198 172.554C199.757 172.358 199.281 172.252 198.798 172.244C198.316 172.235 197.836 172.324 197.388 172.504C196.94 172.684 196.533 172.953 196.191 173.294L177.968 191.514C177.487 191.994 176.835 192.264 176.155 192.265C175.475 192.266 174.822 191.998 174.339 191.519L171.64 188.826C171.306 188.492 170.91 188.228 170.474 188.047C170.038 187.866 169.571 187.773 169.099 187.773C168.627 187.773 168.159 187.866 167.723 188.047C167.287 188.228 166.891 188.492 166.557 188.826L161.334 194.054H219.894V193.309L201.366 173.386Z" fill="#6C63FF"/>
<path d="M222.99 195.143H158.238C157.805 195.142 157.39 194.97 157.084 194.664C156.778 194.358 156.606 193.943 156.605 193.51V155.428C156.606 154.995 156.778 154.58 157.084 154.274C157.39 153.968 157.805 153.796 158.238 153.795H222.99C223.423 153.796 223.838 153.968 224.144 154.274C224.45 154.58 224.622 154.995 224.623 155.428V193.51C224.622 193.943 224.45 194.358 224.144 194.664C223.838 194.97 223.423 195.142 222.99 195.143ZM158.238 154.884C158.094 154.884 157.955 154.941 157.853 155.043C157.751 155.145 157.694 155.283 157.694 155.428V193.51C157.694 193.655 157.751 193.793 157.853 193.895C157.955 193.997 158.094 194.054 158.238 194.055H222.99C223.135 194.054 223.273 193.997 223.375 193.895C223.477 193.793 223.534 193.655 223.535 193.51V155.428C223.534 155.283 223.477 155.145 223.375 155.043C223.273 154.941 223.135 154.884 222.99 154.883L158.238 154.884Z" fill="#3F3D56"/>
<path d="M66.8831 188.777C67.0472 188.198 67.0825 187.591 66.9864 186.997C66.8903 186.403 66.6651 185.838 66.3268 185.34C65.9884 184.843 65.5452 184.426 65.0281 184.118C64.5111 183.811 63.9329 183.62 63.3343 183.56L59.9415 169.338L54.7412 174.878L58.7604 187.535C58.7263 188.547 59.0647 189.536 59.7115 190.315C60.3584 191.095 61.2686 191.61 62.2698 191.763C63.2711 191.916 64.2937 191.697 65.1439 191.146C65.9942 190.596 66.613 189.753 66.8831 188.777Z" fill="#FFB6B6"/>
<path d="M57.8136 183.619C57.5681 183.537 57.3426 183.404 57.1517 183.23C56.9608 183.055 56.8088 182.843 56.7056 182.605L49.5117 165.013C47.6773 160.795 47.4376 156.054 48.8373 151.673L53.4468 137.237C53.5169 136.461 53.7394 135.706 54.1015 135.015C54.4636 134.325 54.9583 133.713 55.5572 133.214C56.1562 132.715 56.8476 132.339 57.5921 132.107C58.3365 131.875 59.1193 131.793 59.8958 131.864C60.6722 131.935 61.427 132.158 62.117 132.521C62.807 132.884 63.4187 133.379 63.9171 133.979C64.4156 134.578 64.7909 135.27 65.0217 136.014C65.2525 136.759 65.3342 137.542 65.2622 138.318L59.1491 161.564L63.2435 179.822C63.3076 180.195 63.2556 180.578 63.0945 180.921C62.9335 181.263 62.6712 181.548 62.343 181.736L59.3081 183.47C58.9826 183.656 58.6081 183.738 58.2347 183.705C58.0914 183.693 57.95 183.664 57.8136 183.619Z" fill="#E4E4E4"/>
<path d="M83.4006 273.758H88.4174L90.8044 254.41H83.3994L83.4006 273.758Z" fill="#FFB6B6"/>
<path d="M82.1201 272.12L92.0005 272.12H92.0009C93.6708 272.12 95.2723 272.783 96.4531 273.964C97.6339 275.144 98.2974 276.746 98.2975 278.415V278.62L82.1204 278.62L82.1201 272.12Z" fill="#2F2E41"/>
<path d="M55.1633 273.758H60.1801L62.5671 254.41H55.1621L55.1633 273.758Z" fill="#FFB6B6"/>
<path d="M53.8838 272.12L63.7642 272.12H63.7646C65.4345 272.12 67.036 272.783 68.2168 273.964C69.3976 275.144 70.0611 276.746 70.0612 278.415V278.62L53.8841 278.62L53.8838 272.12Z" fill="#2F2E41"/>
<path d="M86.421 176.168L56.9989 173.579C56.9989 173.579 54.092 192.125 54.5013 199.489C54.9105 206.854 55.3197 218.311 55.3197 218.311L52.0459 268.227L64.732 266.591L66.3689 225.266L71.6888 202.763L77.8272 231.403L81.9195 268.227L92.9687 267L89.2856 222.402C89.2856 222.402 92.5594 182.305 86.421 176.168Z" fill="#2F2E41"/>
<path d="M74.5537 121.75C79.0739 121.75 82.7382 118.086 82.7382 113.567C82.7382 109.047 79.0739 105.384 74.5537 105.384C70.0335 105.384 66.3691 109.047 66.3691 113.567C66.3691 118.086 70.0335 121.75 74.5537 121.75Z" fill="#FFB8B8"/>
<path d="M83.5163 131.839L77.6707 127.186C77.6707 127.186 71.3403 122.303 67.627 125.913L65.9597 128.296C65.9597 128.296 56.5073 131.839 56.5073 136.339L56.9567 161.029C56.9567 161.029 53.6829 173.713 58.5936 174.531L87.1994 176.846L86.8303 153.255L83.5163 131.839Z" fill="#E4E4E4"/>
<path d="M68.2102 120.727C68.2102 120.727 59.6164 114.59 64.1179 107.225C67.2408 102.116 73.7119 102.52 77.3826 103.247C78.3716 103.43 79.3013 103.85 80.0916 104.472C80.882 105.093 81.5092 105.898 81.9193 106.816C82.5332 108.248 82.5332 109.68 80.0778 109.68C75.1671 109.68 77.6224 113.362 77.6224 113.362C77.6224 113.362 74.3486 114.181 75.1671 117.045C75.9855 119.909 68.2102 120.727 68.2102 120.727Z" fill="#2F2E41"/>
<path d="M113.045 174.959C112.892 174.377 112.614 173.835 112.23 173.373C111.846 172.91 111.364 172.537 110.82 172.28C110.276 172.024 109.683 171.889 109.081 171.887C108.479 171.884 107.885 172.014 107.338 172.266L97.1927 161.736L95.5264 169.149L105.416 178.012C105.901 178.901 106.695 179.582 107.648 179.925C108.601 180.268 109.647 180.249 110.587 179.873C111.527 179.497 112.297 178.788 112.75 177.883C113.203 176.977 113.308 175.936 113.045 174.959H113.045Z" fill="#FFB6B6"/>
<path d="M102.612 175.119C102.359 175.173 102.097 175.173 101.844 175.12C101.591 175.066 101.352 174.96 101.143 174.808L86.0107 163.304C82.2883 160.602 79.6744 156.64 78.6552 152.155L75.2949 137.378C74.9604 136.673 74.7681 135.91 74.7291 135.131C74.6901 134.352 74.8051 133.573 75.0675 132.839C75.3299 132.105 75.7346 131.429 76.2584 130.851C76.7822 130.273 77.4148 129.805 78.1201 129.471C78.8253 129.138 79.5894 128.947 80.3685 128.91C81.1475 128.872 81.9264 128.989 82.6604 129.253C83.3944 129.516 84.0692 129.922 84.6462 130.447C85.2231 130.972 85.6909 131.605 86.0228 132.311L92.5621 155.441L105.361 169.091C105.606 169.38 105.756 169.737 105.791 170.113C105.826 170.49 105.745 170.869 105.558 171.198L103.824 174.232C103.638 174.557 103.357 174.818 103.019 174.98C102.889 175.042 102.752 175.089 102.612 175.119Z" fill="#E4E4E4"/>
<path d="M310.463 12.3471H74.1114C74.0206 12.3468 73.9337 12.3105 73.8696 12.2462C73.8055 12.1819 73.7695 12.0949 73.7695 12.0041C73.7695 11.9134 73.8055 11.8263 73.8696 11.762C73.9337 11.6977 74.0206 11.6614 74.1114 11.6611H310.463C310.554 11.6614 310.641 11.6977 310.705 11.762C310.769 11.8263 310.805 11.9134 310.805 12.0041C310.805 12.0949 310.769 12.1819 310.705 12.2462C310.641 12.3105 310.554 12.3468 310.463 12.3471Z" fill="#CACACA"/>
<path d="M81.832 7.54544C83.916 7.54544 85.6054 5.85634 85.6054 3.77272C85.6054 1.68911 83.916 0 81.832 0C79.748 0 78.0586 1.68911 78.0586 3.77272C78.0586 5.85634 79.748 7.54544 81.832 7.54544Z" fill="#3F3D56"/>
<path d="M94.8672 7.54544C96.9511 7.54544 98.6405 5.85634 98.6405 3.77272C98.6405 1.68911 96.9511 0 94.8672 0C92.7832 0 91.0938 1.68911 91.0938 3.77272C91.0938 5.85634 92.7832 7.54544 94.8672 7.54544Z" fill="#3F3D56"/>
<path d="M107.903 7.54544C109.987 7.54544 111.677 5.85634 111.677 3.77272C111.677 1.68911 109.987 0 107.903 0C105.819 0 104.13 1.68911 104.13 3.77272C104.13 5.85634 105.819 7.54544 107.903 7.54544Z" fill="#3F3D56"/>
<path d="M302.653 2.30769H293.391C293.209 2.30706 293.035 2.23451 292.907 2.10594C292.779 1.97737 292.707 1.80325 292.707 1.62174C292.707 1.44022 292.779 1.26611 292.907 1.13754C293.035 1.00896 293.209 0.936418 293.391 0.935791H302.653C302.834 0.936418 303.008 1.00896 303.136 1.13754C303.264 1.26611 303.336 1.44022 303.336 1.62174C303.336 1.80325 303.264 1.97737 303.136 2.10594C303.008 2.23451 302.834 2.30706 302.653 2.30769Z" fill="#3F3D56"/>
<path d="M302.653 4.87995H293.391C293.209 4.87933 293.035 4.80678 292.907 4.67821C292.779 4.54964 292.707 4.37552 292.707 4.19401C292.707 4.01249 292.779 3.83837 292.907 3.7098C293.035 3.58123 293.209 3.50868 293.391 3.50806H302.653C302.834 3.50868 303.008 3.58123 303.136 3.7098C303.264 3.83837 303.336 4.01249 303.336 4.19401C303.336 4.37552 303.264 4.54964 303.136 4.67821C303.008 4.80678 302.834 4.87933 302.653 4.87995Z" fill="#3F3D56"/>
<path d="M302.653 7.45222H293.391C293.209 7.45159 293.035 7.37905 292.907 7.25047C292.779 7.1219 292.707 6.94779 292.707 6.76627C292.707 6.58475 292.779 6.41064 292.907 6.28207C293.035 6.15349 293.209 6.08095 293.391 6.08032H302.653C302.834 6.08095 303.008 6.15349 303.136 6.28207C303.264 6.41064 303.336 6.58475 303.336 6.76627C303.336 6.94779 303.264 7.1219 303.136 7.25047C303.008 7.37905 302.834 7.45159 302.653 7.45222Z" fill="#3F3D56"/>
<path d="M156.325 278.725H0.409228C0.300694 278.725 0.196605 278.682 0.11986 278.605C0.0431146 278.529 0 278.425 0 278.316C0 278.208 0.0431146 278.104 0.11986 278.027C0.196605 277.95 0.300694 277.907 0.409228 277.907H156.325C156.434 277.907 156.538 277.95 156.614 278.027C156.691 278.104 156.734 278.208 156.734 278.316C156.734 278.425 156.691 278.529 156.614 278.605C156.538 278.682 156.434 278.725 156.325 278.725Z" fill="#CACACA"/>
<path d="M239.224 66.2688H142.124C141.583 66.2805 141.056 66.0929 140.645 65.7419C140.233 65.3908 139.964 64.9007 139.89 64.3646C139.86 64.0689 139.891 63.77 139.984 63.4874C140.076 63.2047 140.226 62.9446 140.426 62.7238C140.625 62.503 140.868 62.3264 141.14 62.2056C141.411 62.0848 141.705 62.0223 142.003 62.0223H239.073C239.623 62.0078 240.159 62.1973 240.577 62.5542C240.996 62.9111 241.267 63.4101 241.34 63.9553C241.366 64.2489 241.331 64.5449 241.237 64.8243C241.142 65.1037 240.991 65.3604 240.792 65.578C240.593 65.7956 240.351 65.9694 240.081 66.0884C239.811 66.2073 239.519 66.2688 239.224 66.2688Z" fill="#6C63FF"/>
</g>
<defs>
<clipPath id="clip0_23_3">
<rect width="331" height="279" fill="white"/>
</clipPath>
</defs>
</svg>
