<svg width="450" height="450" viewBox="0 0 450 450" fill="none" xmlns="http://www.w3.org/2000/svg">
<path d="M225 384.804C321.374 384.804 399.501 380.243 399.501 374.616C399.501 368.989 321.374 364.428 225 364.428C128.626 364.428 50.499 368.989 50.499 374.616C50.499 380.243 128.626 384.804 225 384.804Z" fill="#F5F5F5"/>
<path d="M193.734 267.003H117.27C115.685 267.003 114.399 268.288 114.399 269.874V273.951C114.399 275.537 115.685 276.822 117.27 276.822H193.734C195.32 276.822 196.605 275.537 196.605 273.951V269.874C196.605 268.288 195.32 267.003 193.734 267.003Z" fill="#6193F6"/>
<path d="M192.87 369.216H195.147L192.528 276.822H189.369L192.87 369.216Z" fill="#6193F6"/>
<path opacity="0.3" d="M192.87 369.216H195.147L192.528 276.822H189.369L192.87 369.216Z" fill="white"/>
<path d="M171.873 369.216H169.596L172.224 276.822H175.374L171.873 369.216Z" fill="#6193F6"/>
<path opacity="0.3" d="M171.873 369.216H169.596L172.224 276.822H175.374L171.873 369.216Z" fill="white"/>
<path d="M139.131 369.216H141.417L138.789 276.822H135.63L139.131 369.216Z" fill="#6193F6"/>
<path opacity="0.3" d="M139.131 369.216H141.417L138.789 276.822H135.63L139.131 369.216Z" fill="white"/>
<path d="M118.143 369.216H115.857L118.485 276.822H121.635L118.143 369.216Z" fill="#6193F6"/>
<path opacity="0.3" d="M118.143 369.216H115.857L118.485 276.822H121.635L118.143 369.216Z" fill="white"/>
<path d="M217.179 345.735L225.297 342.99L218.619 324.036L210.51 326.781L217.179 345.735Z" fill="#FFC3BD"/>
<path d="M224.694 339.858L215.802 343.8C215.728 343.826 215.661 343.867 215.605 343.921C215.549 343.976 215.505 344.041 215.477 344.114C215.449 344.187 215.437 344.265 215.441 344.343C215.446 344.42 215.468 344.496 215.505 344.565L218.88 351.423C219.091 351.782 219.425 352.054 219.82 352.188C220.214 352.322 220.644 352.309 221.031 352.152C224.1 350.739 225.477 349.92 229.392 348.201C231.804 347.148 236.655 345.267 239.661 343.332C242.667 341.397 240.309 338.607 238.833 339.165C235.332 340.497 229.509 340.443 226.323 339.759C225.782 339.623 225.213 339.658 224.694 339.858Z" fill="#263238"/>
<path opacity="0.2" d="M210.51 326.79L218.628 324.036L222.435 334.881L214.182 337.239L210.51 326.79Z" fill="black"/>
<path d="M159.678 241.371C159.678 241.371 200.178 248.679 203.445 261.981C209.862 288.279 224.334 329.409 224.334 329.409L208.926 333.909C208.926 333.909 186.894 286.74 184.122 270.864C161.397 270.864 133.722 272.664 130.122 263.052C126.963 254.52 128.088 241.407 128.088 241.407L159.678 241.371Z" fill="#263238"/>
<path d="M208.08 336.6L226.08 330.66L224.541 322.533L204.912 329.445L208.08 336.6Z" fill="#6193F6"/>
<path d="M181.899 348.615L190.863 349.299L185.598 327.177L177.237 329.067L181.899 348.615Z" fill="#FFC3BD"/>
<path d="M190.638 347.139L180.981 346.068C180.903 346.054 180.824 346.056 180.747 346.076C180.67 346.095 180.599 346.131 180.537 346.18C180.476 346.23 180.426 346.292 180.391 346.363C180.355 346.433 180.336 346.511 180.333 346.59L179.829 354.222C179.846 354.635 180.005 355.029 180.279 355.339C180.552 355.649 180.924 355.855 181.332 355.923C184.689 356.238 186.3 356.211 190.548 356.679C193.158 356.967 198.306 357.768 201.879 357.579C205.452 357.39 204.804 353.799 203.238 353.556C199.539 352.953 194.535 350.001 192.114 347.814C191.705 347.439 191.189 347.203 190.638 347.139Z" fill="#263238"/>
<path opacity="0.2" d="M177.237 329.076L185.598 327.186L188.253 338.364L179.802 339.849L177.237 329.076Z" fill="black"/>
<path d="M138.6 241.371C138.6 241.371 187.839 248.742 185.58 267.381C182.331 294.255 190.674 333.126 190.674 333.126L174.879 335.952C174.879 335.952 163.269 287.64 163.179 271.521C147.159 271.521 119.169 272.664 115.587 263.016C112.428 254.484 113.553 241.371 113.553 241.371H138.6Z" fill="#263238"/>
<path d="M173.79 338.58L192.321 334.548L191.637 326.313L171.387 331.128L173.79 338.58Z" fill="#6193F6"/>
<path d="M164.574 189.576C165.888 194.724 167.175 199.917 168.435 205.092C169.695 210.267 170.928 215.451 172.233 220.563L173.214 224.37L173.718 226.242L173.979 227.142V227.259V227.313C173.979 227.313 173.979 227.232 173.934 227.196C173.866 227.012 173.782 226.834 173.682 226.665L173.547 226.458L173.448 226.323L173.268 226.125C173.079 225.945 173.052 225.972 173.097 226.017C173.194 226.117 173.303 226.204 173.421 226.278C173.817 226.545 174.232 226.783 174.663 226.989C175.635 227.466 176.769 227.889 177.93 228.357C182.61 230.094 187.776 231.57 192.798 233.163L192.006 238.905C189.242 238.937 186.479 238.829 183.726 238.581C180.925 238.35 178.139 237.96 175.383 237.411C173.903 237.124 172.442 236.745 171.009 236.277C170.182 236.013 169.373 235.694 168.588 235.323C168.105 235.098 167.639 234.84 167.193 234.549C166.572 234.153 166.001 233.685 165.492 233.154C165.33 232.974 165.177 232.803 164.997 232.569L164.745 232.227L164.493 231.804C164.307 231.487 164.148 231.156 164.016 230.814L163.872 230.4L163.521 229.41L162.846 227.448C162.405 226.143 161.946 224.838 161.577 223.542C159.948 218.34 158.463 213.165 157.077 207.954C155.691 202.743 154.377 197.541 153.171 192.267L164.574 189.576Z" fill="#FFC3BD"/>
<path d="M151.92 183.348C156.861 177.84 164.691 181.692 167.994 194.022C169.596 200.016 169.092 203.148 169.092 203.148L152.046 208.404C148.383 200.304 145.197 190.854 151.92 183.348Z" fill="#6193F6"/>
<g opacity="0.2">
<path opacity="0.2" d="M151.92 183.348C156.861 177.84 164.691 181.692 167.994 194.022C169.596 200.016 169.092 203.148 169.092 203.148L152.046 208.404C148.383 200.304 145.197 190.854 151.92 183.348Z" fill="black"/>
</g>
<path d="M201.735 230.85L200.205 230.382C199.278 230.102 198.305 230.013 197.343 230.121L194.058 230.508C192.999 230.76 192.005 231.232 191.141 231.894C190.277 232.556 189.563 233.394 189.045 234.351L187.929 236.529C188.487 240.543 196.623 239.229 196.623 239.229H204.3L204.048 233.775C204.009 233.109 203.766 232.471 203.353 231.948C202.939 231.424 202.374 231.041 201.735 230.85Z" fill="#FFC3BD"/>
<path d="M207 222.066C206.782 223.544 206.159 224.934 205.2 226.08C204.381 227.277 203.535 228.465 202.68 229.68C200.961 232.029 199.206 234.342 197.28 236.547C197.196 236.642 197.08 236.703 196.953 236.719C196.827 236.735 196.699 236.704 196.594 236.632C196.489 236.56 196.414 236.452 196.383 236.329C196.352 236.205 196.367 236.075 196.425 235.962C197.757 233.352 199.26 230.868 200.799 228.402C201.573 227.172 202.365 225.951 203.175 224.739C203.874 223.414 204.923 222.306 206.208 221.535C206.303 221.477 206.413 221.446 206.524 221.448C206.636 221.449 206.745 221.481 206.838 221.541C206.932 221.601 207.007 221.687 207.055 221.787C207.103 221.888 207.121 222 207.108 222.111L207 222.066Z" fill="#263238"/>
<path d="M153.063 178.011L143.46 175.311L131.103 174.735C129.229 174.647 127.378 175.177 125.835 176.244C124.292 177.311 123.142 178.855 122.562 180.639C120.204 187.839 118.062 198.207 116.46 207.18C114.56 218.481 113.593 229.92 113.571 241.38H159.678C160.623 215.775 163.638 203.265 165.42 194.202C165.943 191.517 165.559 188.734 164.329 186.291C163.1 183.848 161.093 181.882 158.625 180.702L153.063 178.011Z" fill="#6193F6"/>
<path d="M140.184 179.811C141.354 182.817 145.881 189.243 151.146 191.754C154.071 189.639 154.701 185.022 155.142 182.862L140.184 179.811Z" fill="white"/>
<path d="M155.142 182.862C155.484 181.674 155.342 180.399 154.746 179.316C153.999 178.146 154.188 176.805 154.935 175.428C155.528 174.331 156.27 173.323 157.14 172.431L151.101 165.366L146.178 159.66C145.755 164.997 145.341 171.612 141.129 175.752C139.644 177.219 139.329 177.66 140.184 179.811C141.354 182.817 145.584 187.011 150.804 189.522C151.935 188.757 152.901 187.774 153.646 186.63C154.391 185.487 154.9 184.205 155.142 182.862Z" fill="#FFC3BD"/>
<path opacity="0.2" d="M155.286 171.216L151.875 165.681C151.812 165.825 151.731 165.978 151.65 166.14C151.343 166.825 151.096 167.536 150.912 168.264C150.291 170.721 152.379 174.231 154.665 175.905C154.764 175.752 154.845 175.59 154.935 175.428C155.517 174.389 156.208 173.414 156.996 172.521C157.041 172.486 157.089 172.456 157.14 172.431L155.286 171.216Z" fill="black"/>
<path d="M167.202 157.986C167.994 163.089 175.302 149.958 171.216 147.078C166.23 143.55 165.708 148.275 167.202 157.986Z" fill="#263238"/>
<path d="M146.404 151.326C145.936 159.615 145.225 164.43 149.032 169.218C154.756 176.418 165.745 174.042 168.778 166.113C171.478 158.967 171.811 146.619 163.846 142.245C155.881 137.871 146.872 143.046 146.404 151.326Z" fill="#FFC3BD"/>
<path d="M162.738 146.349C162.738 146.349 168.039 151.551 171.819 149.4C175.599 147.249 176.364 141.678 171.819 136.8C169.632 134.451 166.32 132.156 159.822 132.3C160.335 132.799 160.949 133.183 161.622 133.425C161.622 133.425 153.378 132.048 147.636 134.415C148.096 135.107 148.713 135.68 149.436 136.089C143.847 135.666 138.411 137.889 142.236 143.136C137.169 143.631 136.035 150.111 138.735 154.386C141.435 158.661 141.912 161.865 145.521 163.809C145.521 157.986 146.862 156.609 146.862 156.609C149.463 155.502 152.46 149.958 151.857 147.159C157.419 149.4 163.35 150.138 162.738 146.349Z" fill="#263238"/>
<path d="M143.568 142.947C141.804 141.69 140.434 139.958 139.617 137.952C138.969 140.85 141.966 144.153 141.966 144.153L143.568 142.947Z" fill="#263238"/>
<path d="M142.263 155.853C142.325 157.751 143.07 159.563 144.36 160.956C146.079 162.756 148.419 161.226 148.86 158.913C149.22 156.834 148.338 153.657 146.16 152.721C143.982 151.785 142.2 153.531 142.263 155.853Z" fill="#FFC3BD"/>
<path d="M159.975 155.601C159.84 156.285 160.083 156.924 160.524 157.032C160.965 157.14 161.424 156.672 161.577 155.988C161.73 155.304 161.469 154.665 161.028 154.557C160.587 154.449 160.11 154.926 159.975 155.601Z" fill="#263238"/>
<path d="M167.625 157.428C167.481 158.112 167.733 158.742 168.174 158.85C168.615 158.958 169.074 158.49 169.227 157.806C169.38 157.122 169.11 156.483 168.669 156.384C168.228 156.285 167.76 156.744 167.625 157.428Z" fill="#263238"/>
<path d="M165.078 157.374C165.276 159.334 165.737 161.259 166.446 163.098C165.186 163.737 163.602 162.774 163.602 162.774L165.078 157.374Z" fill="#ED847E"/>
<path d="M162.189 166.599C161.397 166.433 160.646 166.108 159.982 165.644C159.319 165.18 158.756 164.586 158.328 163.899C158.311 163.875 158.299 163.848 158.293 163.819C158.287 163.79 158.288 163.761 158.294 163.732C158.301 163.704 158.313 163.677 158.331 163.653C158.348 163.63 158.371 163.61 158.396 163.596C158.422 163.582 158.45 163.574 158.48 163.571C158.509 163.569 158.538 163.573 158.566 163.583C158.594 163.593 158.619 163.608 158.64 163.629C158.661 163.649 158.677 163.674 158.688 163.701C159.165 164.436 159.804 165.051 160.556 165.501C161.308 165.95 162.153 166.221 163.026 166.293C163.053 166.294 163.079 166.3 163.103 166.312C163.126 166.324 163.147 166.34 163.164 166.361C163.181 166.381 163.194 166.405 163.201 166.43C163.208 166.456 163.21 166.483 163.206 166.509C163.205 166.536 163.199 166.562 163.187 166.586C163.175 166.61 163.159 166.632 163.139 166.65C163.119 166.667 163.095 166.681 163.07 166.689C163.044 166.697 163.017 166.7 162.99 166.698C162.722 166.681 162.454 166.648 162.189 166.599Z" fill="#263238"/>
<path d="M158.967 152.847C158.904 152.822 158.849 152.781 158.805 152.73C158.737 152.646 158.705 152.538 158.715 152.431C158.725 152.323 158.777 152.224 158.859 152.154C159.346 151.733 159.93 151.439 160.558 151.298C161.186 151.157 161.839 151.173 162.459 151.344C162.562 151.378 162.646 151.452 162.694 151.549C162.743 151.647 162.75 151.759 162.716 151.861C162.681 151.964 162.607 152.049 162.51 152.097C162.413 152.145 162.301 152.152 162.198 152.118C161.71 151.994 161.198 151.99 160.708 152.106C160.218 152.222 159.762 152.454 159.381 152.784C159.324 152.831 159.256 152.862 159.183 152.873C159.11 152.884 159.035 152.875 158.967 152.847Z" fill="#263238"/>
<path d="M168.571 153C168.557 152.934 168.557 152.867 168.571 152.802C168.602 152.699 168.672 152.611 168.765 152.558C168.859 152.504 168.97 152.488 169.075 152.514C169.695 152.679 170.265 152.993 170.735 153.429C171.206 153.866 171.563 154.41 171.775 155.016C171.79 155.067 171.794 155.121 171.789 155.174C171.783 155.228 171.766 155.279 171.74 155.326C171.714 155.373 171.679 155.414 171.637 155.447C171.595 155.481 171.547 155.505 171.496 155.52C171.444 155.535 171.39 155.54 171.337 155.534C171.284 155.528 171.232 155.511 171.185 155.486C171.138 155.46 171.097 155.425 171.064 155.383C171.031 155.341 171.006 155.292 170.992 155.241C170.818 154.767 170.532 154.343 170.157 154.006C169.782 153.668 169.33 153.428 168.841 153.306C168.774 153.281 168.714 153.24 168.667 153.187C168.62 153.133 168.587 153.069 168.571 153Z" fill="#263238"/>
<path d="M133.029 187.092C131.301 192.024 129.573 197.163 128.034 202.203C127.251 204.723 126.54 207.252 125.901 209.745C125.282 212.139 124.801 214.567 124.461 217.017C124.461 217.287 124.389 217.584 124.38 217.845V218.241C124.38 218.367 124.38 218.556 124.38 218.493C124.38 218.43 124.308 218.547 124.38 218.736C124.608 219.424 124.979 220.055 125.469 220.59C127.015 222.301 128.769 223.813 130.689 225.09C135.023 228.012 139.548 230.64 144.234 232.956L142.308 238.5C139.519 237.891 136.769 237.116 134.073 236.178C131.326 235.237 128.644 234.115 126.045 232.821C123.195 231.43 120.558 229.639 118.215 227.502C116.726 226.13 115.527 224.475 114.687 222.633C114.163 221.45 113.858 220.181 113.787 218.889C113.787 218.484 113.787 218.34 113.787 218.124V217.494C113.787 217.071 113.787 216.684 113.787 216.279C113.942 213.282 114.318 210.301 114.912 207.36C115.452 204.516 116.127 201.762 116.856 199.026C118.316 193.592 120.062 188.238 122.085 182.988L133.029 187.092Z" fill="#FFC3BD"/>
<path d="M130.5 174.681C139.302 174.6 140.967 181.449 136.179 192.303C134.347 196.225 132.109 199.944 129.501 203.4L114.948 195.669C116.892 187.002 120.447 174.771 130.5 174.681Z" fill="#6193F6"/>
<path d="M154.8 232.092L151.578 230.292C151.051 230.003 150.446 229.889 149.85 229.968L145.98 230.508C143.379 230.778 141.48 232.767 140.067 234.495L138.42 236.511C138.339 240.579 148.617 239.625 148.617 239.625L157.617 239.508L157.338 235.962C157.267 235.157 156.998 234.383 156.556 233.708C156.113 233.033 155.51 232.478 154.8 232.092Z" fill="#FFC3BD"/>
<path d="M346.806 237.501H103.185V248.904H346.806V237.501Z" fill="#6193F6"/>
<path opacity="0.3" d="M182.205 237.501H103.185V248.904H182.205V237.501Z" fill="white"/>
<path d="M109.709 248.904H105.983V374.616H109.709V248.904Z" fill="#6193F6"/>
<path opacity="0.7" d="M109.709 248.904H105.983V374.616H109.709V248.904Z" fill="white"/>
<path d="M179.414 248.904H175.688V374.616H179.414V248.904Z" fill="#6193F6"/>
<path opacity="0.7" d="M179.414 248.904H175.688V374.616H179.414V248.904Z" fill="white"/>
<path d="M274.311 248.904H270.585V374.616H274.311V248.904Z" fill="#6193F6"/>
<path opacity="0.7" d="M274.311 248.904H270.585V374.616H274.311V248.904Z" fill="white"/>
<path d="M344.016 248.904H340.29V374.616H344.016V248.904Z" fill="#6193F6"/>
<path opacity="0.7" d="M344.016 248.904H340.29V374.616H344.016V248.904Z" fill="white"/>
<path d="M320.399 187.101H253.799C252.658 187.142 251.564 187.57 250.698 188.314C249.831 189.058 249.243 190.074 249.029 191.196L242.081 233.397C241.975 233.9 241.984 234.421 242.108 234.92C242.232 235.419 242.467 235.883 242.796 236.278C243.125 236.673 243.54 236.988 244.008 237.2C244.477 237.412 244.987 237.515 245.501 237.501H312.101C313.246 237.461 314.342 237.033 315.211 236.288C316.08 235.542 316.668 234.522 316.88 233.397L323.828 191.196C323.935 190.693 323.926 190.171 323.802 189.672C323.677 189.173 323.441 188.708 323.11 188.314C322.78 187.919 322.364 187.605 321.895 187.395C321.425 187.185 320.914 187.084 320.399 187.101Z" fill="#263238"/>
<path d="M278.108 234.747H215.405C214.993 234.747 214.658 235.081 214.658 235.494V236.754C214.658 237.166 214.993 237.501 215.405 237.501H278.108C278.521 237.501 278.855 237.166 278.855 236.754V235.494C278.855 235.081 278.521 234.747 278.108 234.747Z" fill="#263238"/>
<path opacity="0.2" d="M320.4 187.101H255.258C254.116 187.142 253.022 187.57 252.156 188.314C251.289 189.058 250.701 190.074 250.488 191.196L243.54 233.397C243.431 233.9 243.439 234.421 243.562 234.921C243.686 235.421 243.921 235.886 244.25 236.282C244.58 236.677 244.995 236.992 245.464 237.204C245.934 237.415 246.445 237.517 246.96 237.501H312.057C313.201 237.461 314.298 237.033 315.166 236.288C316.035 235.542 316.624 234.522 316.836 233.397L323.784 191.196C323.889 190.696 323.881 190.179 323.759 189.683C323.637 189.188 323.405 188.726 323.08 188.332C322.754 187.938 322.344 187.623 321.88 187.41C321.416 187.197 320.91 187.091 320.4 187.101Z" fill="white"/>
<path d="M148.014 234.747C148.014 234.747 169.461 237.942 179.811 233.721C184.653 236.052 201.897 237.204 207.9 234.747C206.046 236.898 201.69 237.501 201.69 237.501H156.447C152.1 237.501 148.779 235.602 148.014 234.747Z" fill="#6193F6"/>
<path opacity="0.7" d="M148.014 234.747C148.014 234.747 169.461 237.942 179.811 233.721C184.653 236.052 201.897 237.204 207.9 234.747C206.046 236.898 201.69 237.501 201.69 237.501H156.447C152.1 237.501 148.779 235.602 148.014 234.747Z" fill="white"/>
</svg>
