<svg width="325" height="324" viewBox="0 0 325 324" fill="none" xmlns="http://www.w3.org/2000/svg">
<g clip-path="url(#clip0_26_73)">
<path d="M318.204 120.327C300.726 51.6354 240.331 2.04938 169.44 0.0605304C131.963 -0.990912 92.526 11.4318 63.813 54.9032C12.4855 132.613 66.9672 186.313 104.95 211.83C123.301 224.183 139.836 239.036 154.076 255.959C179.732 286.388 229.09 324.199 287.872 264.954C330.477 222.014 329.847 166.083 318.204 120.327Z" fill="#F2F2F2"/>
<path d="M158.283 324C245.7 324 316.566 315.056 316.566 304.024C316.566 292.991 245.7 284.048 158.283 284.048C70.8657 284.048 0 292.991 0 304.024C0 315.056 70.8657 324 158.283 324Z" fill="#6193F6"/>
<path opacity="0.1" d="M158.283 314.315C235.888 314.315 298.8 308.041 298.8 300.302C298.8 292.564 235.888 286.29 158.283 286.29C80.678 286.29 17.7666 292.564 17.7666 300.302C17.7666 308.041 80.678 314.315 158.283 314.315Z" fill="black"/>
<path d="M88.9065 181.781H80.6572V307.099H88.9065V181.781Z" fill="#6193F6"/>
<path d="M154.076 178.483V181.781L19.6133 183.43V180.132L19.8031 180.009L43.5362 164.468H143.352L154.076 178.483Z" fill="#6193F6"/>
<path d="M130.153 158.696C130.153 158.696 100.456 161.17 110.355 168.59C120.254 176.01 130.153 163.643 130.153 163.643V158.696Z" fill="#FFB9B9"/>
<path opacity="0.1" d="M154.076 178.582V181.781L19.6133 183.43V180.132L19.8031 180.008L154.076 178.582Z" fill="black"/>
<path d="M174.699 118.298L175.421 115.591C175.421 115.591 165.625 133.138 164.8 134.787C163.975 136.436 149.951 150.452 148.301 152.925C147.177 154.528 145.781 155.923 144.177 157.047H128.503C128.503 157.047 125.204 167.765 130.153 168.59C135.103 169.414 150.776 172.712 154.076 172.712C157.376 172.712 177.999 153.75 177.999 153.75L174.699 118.298Z" fill="#3362CC"/>
<path d="M177.998 237.844L173.049 307.099H177.998L183.773 236.196L177.998 237.844Z" fill="#6193F6"/>
<path d="M238.218 229.6L233.269 298.855H238.218L243.993 227.951L238.218 229.6Z" fill="#6193F6"/>
<path d="M247.292 237.844L242.343 307.099H247.292L253.067 236.196L247.292 237.844Z" fill="#6193F6"/>
<path d="M170.575 231.249L165.625 300.504H170.575L176.349 229.6L170.575 231.249Z" fill="#6193F6"/>
<path d="M266.266 143.031L252.242 243.616L168.925 240.318L169.486 231.034L170.575 213.11L234.919 216.408L245.643 143.031H266.266Z" fill="#6193F6"/>
<path opacity="0.1" d="M266.266 143.032L252.242 243.616L168.925 240.318L169.486 231.035C186.875 231.702 245.643 227.951 245.643 227.951C245.643 214.793 257.208 163.28 261.877 143.031L266.266 143.032Z" fill="black"/>
<path d="M120.254 265.052C120.254 265.052 117.779 284.014 112.829 287.312C107.88 290.61 133.452 294.732 133.452 294.732L135.102 269.999L120.254 265.052Z" fill="#FFB9B9"/>
<path d="M203.571 273.296C203.571 273.296 207.696 278.243 208.521 281.541C209.346 284.839 221.72 286.488 221.72 286.488L230.794 276.594C230.794 276.594 219.245 266.701 215.945 266.701C212.645 266.701 203.571 273.296 203.571 273.296Z" fill="#FFB9B9"/>
<path d="M181.71 103.045C192.645 103.045 201.509 94.1861 201.509 83.258C201.509 72.3299 192.645 63.4709 181.71 63.4709C170.776 63.4709 161.912 72.3299 161.912 83.258C161.912 94.1861 170.776 103.045 181.71 103.045Z" fill="#FFB9B9"/>
<path d="M176.349 96.8616C176.349 96.8616 186.248 115.824 184.598 119.122C182.948 122.42 206.046 103.457 206.046 103.457C206.046 103.457 197.797 90.2659 197.797 86.1436C197.797 82.0213 176.349 96.8616 176.349 96.8616Z" fill="#FFB9B9"/>
<path d="M185.423 194.148C185.423 194.148 121.904 184.255 119.429 207.34C116.954 230.425 107.88 260.105 107.055 262.579C106.23 265.052 134.277 279.068 137.577 274.121C140.877 269.174 146.651 229.6 145.002 226.302C143.352 223.004 142.527 218.882 145.826 219.706C149.126 220.531 185.423 227.951 192.847 225.478C200.272 223.004 219.245 190.026 219.245 190.026L185.423 194.148Z" fill="#2F2E41"/>
<path opacity="0.1" d="M185.423 194.148C185.423 194.148 121.904 184.255 119.429 207.34C116.954 230.425 107.88 260.105 107.055 262.579C106.23 265.052 134.277 279.068 137.577 274.121C140.877 269.174 146.651 229.6 145.002 226.302C143.352 223.004 142.527 218.882 145.826 219.706C149.126 220.531 185.423 227.951 192.847 225.478C200.272 223.004 219.245 190.026 219.245 190.026L185.423 194.148Z" fill="black"/>
<path d="M183.773 189.201L186.247 209.813C186.247 209.813 146.651 224.653 161.5 248.563C176.348 272.472 192.847 285.663 192.847 285.663C192.847 285.663 219.244 270.823 219.244 266.701C219.244 262.578 187.072 239.494 191.197 239.494C195.322 239.494 254.716 236.196 242.342 203.217C229.968 170.239 183.773 189.201 183.773 189.201Z" fill="#2F2E41"/>
<path d="M119.428 288.137C119.428 288.137 112.829 280.717 112.829 282.366C112.829 284.014 93.8558 293.908 90.5561 294.733C87.2564 295.557 82.3068 297.206 88.9062 299.679C95.5056 302.153 137.577 302.977 137.577 301.328C137.577 299.679 139.227 284.014 135.927 285.663C132.627 287.312 120.253 291.435 119.428 288.137Z" fill="#2F2E41"/>
<path d="M216.77 282.365C216.77 282.365 207.696 279.892 206.871 282.365C206.046 284.839 205.221 294.732 197.797 298.03C190.372 301.328 187.898 306.275 197.797 307.099C207.696 307.924 234.918 288.961 234.918 285.663C234.918 282.365 231.619 272.472 229.969 273.296C228.319 274.121 224.194 281.541 216.77 282.365Z" fill="#2F2E41"/>
<path d="M103.755 293.083H65.8086V307.924H103.755V293.083Z" fill="#6193F6"/>
<path d="M206.046 98.5105C206.046 98.5105 202.958 90.2579 197.49 95.2087C192.022 100.159 181.298 112.526 181.298 112.526C181.298 112.526 174.699 115 172.224 119.122C169.749 123.244 169.749 150.452 174.699 159.521C179.649 168.59 179.649 184.255 181.298 188.377C182.948 192.499 181.298 196.621 187.073 196.621C192.847 196.621 183.773 190.026 202.746 196.621C221.72 203.217 243.168 211.462 244.818 205.691C246.467 199.919 242.343 196.621 244.818 194.148C247.292 191.675 244.818 190.85 243.168 185.079C241.518 179.308 239.868 178.483 239.043 171.063C238.218 163.643 239.043 156.223 237.393 152.925C235.743 149.627 235.743 144.68 235.743 136.436C235.743 128.191 230.794 111.702 221.72 106.755C212.646 101.808 206.046 98.5105 206.046 98.5105Z" fill="#3362CC"/>
<path d="M162.379 61.2554C166.978 56.7691 171.811 52.1384 177.932 50.1845C186.102 47.5765 195.211 50.3131 202.245 55.2183C203.762 56.2765 205.248 57.4746 206.16 59.0837C206.997 60.5598 207.289 62.2728 207.555 63.9483C208.488 69.8486 209.254 75.8277 208.797 81.784C208.341 87.7402 206.583 93.7269 202.913 98.4418C199.659 94.9672 197.162 90.8557 195.58 86.3672C195.162 85.1794 194.787 83.9278 193.943 82.993C193.099 82.0583 191.613 81.5553 190.554 82.2368C189.082 83.1836 189.267 85.7121 187.713 86.5172C187.181 86.7583 186.586 86.8207 186.015 86.6951C181.964 85.9974 180.553 81.0367 177.916 77.8844C174.03 73.2382 168.589 73.5322 163.278 72.197C157.115 70.6474 158.641 64.9022 162.379 61.2554Z" fill="#2F2E41"/>
<path d="M128.876 172.981C138.241 172.981 145.833 171.331 145.833 169.297C145.833 167.262 138.241 165.612 128.876 165.612C119.511 165.612 111.919 167.262 111.919 169.297C111.919 171.331 119.511 172.981 128.876 172.981Z" fill="#6C63FF"/>
<path d="M127.485 169.71L127.153 152.167C127.079 148.243 127.219 143.795 130.138 141.169C131.983 139.51 134.756 138.797 135.914 136.603C136.544 135.408 136.556 133.995 136.553 132.644L136.507 108.765" stroke="#6C63FF" stroke-width="6" stroke-miterlimit="10"/>
<path d="M136.705 101.26H135.302C133.518 101.26 132.071 102.706 132.071 104.489V113.26C132.071 115.043 133.518 116.489 135.302 116.489H136.705C138.489 116.489 139.935 115.043 139.935 113.26V104.489C139.935 102.706 138.489 101.26 136.705 101.26Z" fill="#6C63FF"/>
<path d="M158.654 165.842C158.654 165.842 131.313 158.594 129.083 164.828C126.853 171.063 152.426 176.834 152.426 176.834H163.15L158.654 165.842Z" fill="#FFB9B9"/>
<path d="M215.945 111.702C215.945 111.702 203.571 120.771 200.271 133.962C196.971 147.154 194.497 161.17 194.497 161.17L156.55 166.116C156.55 166.116 153.25 179.308 158.2 180.132C163.15 180.957 200.271 183.43 206.046 180.132C211.82 176.834 231.618 135.611 230.793 131.489C229.968 127.367 228.319 112.526 215.945 111.702Z" fill="#3362CC"/>
<path d="M68.0603 170.324L81.4643 171.399L100.577 170.159L100.245 170.127L82.5399 168.422C78.4856 166.934 81.2988 158.168 81.2988 158.168L67.7326 158.858L66.6537 158.912C61.8547 170.159 68.0603 170.324 68.0603 170.324Z" fill="#D1D9EC"/>
<path opacity="0.1" d="M68.0603 170.324L81.4643 171.399L100.577 170.159L100.245 170.127L80.9265 170.82L67.9775 169.415C64.3039 168.449 66.4071 162.073 67.7326 158.858L66.6537 158.912C61.8547 170.159 68.0603 170.324 68.0603 170.324Z" fill="black"/>
<path d="M45.8441 90.2747L49.8585 148.452V155.473C49.981 157.238 50.8205 160.31 52.5912 160.298L55.8802 157.479H115.093C116.113 157.472 112.685 155.985 112.584 154.971L116.737 152.805L112.391 110.146C112.322 109.472 112.063 108.832 111.642 108.301C111.222 107.77 110.658 107.37 110.018 107.148L51.1912 86.7882C49.1889 86.0953 47.1518 86.3417 45.8776 87.4002C45.0039 88.1262 45.7432 88.8259 45.8441 90.2747Z" fill="#4C4C56"/>
<path d="M48.6875 149.467L49.2253 157.181C49.2841 158.031 49.665 158.827 50.2904 159.406C50.9158 159.985 51.7386 160.305 52.5912 160.299L53.8356 160.29L115.557 159.917C115.798 159.915 116.036 159.863 116.255 159.764C116.475 159.666 116.672 159.522 116.833 159.343C116.994 159.164 117.116 158.954 117.19 158.725C117.265 158.496 117.292 158.254 117.268 158.015L116.737 152.805L48.6875 149.467Z" fill="#DFE6F5"/>
<path d="M90.0696 157.507C90.5265 157.507 90.897 156.766 90.897 155.853C90.897 154.939 90.5265 154.199 90.0696 154.199C89.6126 154.199 89.2422 154.939 89.2422 155.853C89.2422 156.766 89.6126 157.507 90.0696 157.507Z" fill="white"/>
<path d="M59.8524 172.259C59.8524 172.259 42.9733 165.892 38.4225 170.523C38.4225 170.523 37.6779 171.928 40.7393 172.259L53.1095 173.252C53.1095 173.252 58.1975 173.748 59.8524 172.259Z" fill="#D1D9EC"/>
<path d="M59.4019 170.603C56.0861 169.249 46.1046 165.746 39.7188 169.622C39.7188 169.622 46.7852 168.84 50.6682 171.083C54.5512 173.326 59.8524 172.259 59.8524 172.259L59.9317 172.118C60.0061 171.986 60.0515 171.839 60.0648 171.688C60.0782 171.537 60.0592 171.384 60.0091 171.241C59.9589 171.098 59.8789 170.967 59.7742 170.857C59.6695 170.747 59.5426 170.66 59.4019 170.603Z" fill="#DFE6F5"/>
<path d="M44.5899 90.6831L49.225 157.181C49.2838 158.031 49.6647 158.827 50.2901 159.406C50.9155 159.985 51.7383 160.304 52.5909 160.298L53.8353 160.29C52.982 159.474 52.2548 158.536 51.6775 157.507C51.6775 157.507 47.1267 90.6897 46.7958 89.0358C46.6508 88.4147 46.3323 87.8475 45.8773 87.4001C45.4096 87.7997 45.0474 88.3082 44.8229 88.8807C44.5983 89.4533 44.5183 90.0723 44.5899 90.6831Z" fill="#DFE6F5"/>
<path opacity="0.1" d="M44.5899 90.6831L49.225 157.181C49.2838 158.031 49.6647 158.827 50.2901 159.406C50.9155 159.985 51.7383 160.304 52.5909 160.298L53.8353 160.29C52.982 159.474 52.2548 158.536 51.6775 157.507C51.6775 157.507 47.1267 90.6897 46.7958 89.0358C46.6508 88.4147 46.3323 87.8475 45.8773 87.4001C45.4096 87.7997 45.0474 88.3082 44.8229 88.8807C44.5983 89.4533 44.5183 90.0723 44.5899 90.6831Z" fill="black"/>
<path opacity="0.7" d="M75.064 128.096L71.8814 128.017L72.024 122.308L75.2066 122.387L75.1919 122.977L72.6732 122.914L72.6272 124.753L74.9936 124.812L74.979 125.398L72.6126 125.339L72.5601 127.44L75.0788 127.503L75.064 128.096ZM79.163 127.624L79.1278 127.623C78.8176 128.051 78.3644 128.257 77.7682 128.242C77.2085 128.228 76.7772 128.026 76.4744 127.635C76.1741 127.245 76.0328 126.697 76.0505 125.991C76.0681 125.286 76.238 124.742 76.5601 124.359C76.8823 123.976 77.3219 123.792 77.8791 123.806C78.4596 123.82 78.8995 124.042 79.1988 124.472L79.2495 124.473L79.2299 124.164L79.2218 123.863L79.2653 122.121L79.9136 122.137L79.7617 128.214L79.2345 128.2L79.163 127.624ZM77.8638 127.701C78.3063 127.712 78.6295 127.6 78.8334 127.366C79.0399 127.129 79.1499 126.742 79.1633 126.206L79.1667 126.069C79.1818 125.463 79.0911 125.028 78.8945 124.765C78.7005 124.5 78.3823 124.361 77.9397 124.35C77.5596 124.341 77.2643 124.482 77.0538 124.774C76.846 125.063 76.7354 125.477 76.7219 126.016C76.7083 126.563 76.7982 126.978 76.9917 127.261C77.1852 127.545 77.4759 127.691 77.8638 127.701ZM81.7884 128.264L81.1402 128.248L81.2472 123.968L81.8954 123.984L81.7884 128.264ZM81.2215 122.807C81.2252 122.658 81.2643 122.551 81.3389 122.485C81.4136 122.417 81.5055 122.384 81.6149 122.387C81.719 122.389 81.808 122.427 81.8817 122.499C81.9554 122.571 81.9905 122.68 81.9868 122.826C81.9832 122.972 81.9427 123.08 81.8654 123.151C81.7882 123.22 81.6975 123.252 81.5933 123.25C81.484 123.247 81.3937 123.21 81.3226 123.138C81.2515 123.063 81.2178 122.953 81.2215 122.807ZM84.5568 127.876C84.6714 127.879 84.7822 127.874 84.8893 127.861C84.9965 127.845 85.0816 127.829 85.1445 127.813L85.1321 128.309C85.061 128.341 84.9562 128.365 84.8177 128.383C84.6817 128.403 84.5591 128.411 84.4497 128.409C83.6218 128.388 83.2188 127.942 83.2406 127.07L83.3042 124.523L82.6911 124.508L82.6989 124.196L83.3188 123.942L83.615 123.035L83.9898 123.044L83.9651 124.036L85.2069 124.067L85.1943 124.571L83.9525 124.54L83.8895 127.058C83.8831 127.316 83.9393 127.516 84.0582 127.657C84.1771 127.798 84.3433 127.871 84.5568 127.876ZM86.6385 128.385L85.9902 128.369L86.0972 124.089L86.7454 124.105L86.6385 128.385ZM86.0715 122.928C86.0752 122.78 86.1144 122.672 86.189 122.607C86.2636 122.538 86.3556 122.505 86.4649 122.508C86.5691 122.511 86.658 122.548 86.7318 122.62C86.8055 122.692 86.8405 122.801 86.8369 122.947C86.8333 123.093 86.7928 123.201 86.7155 123.272C86.6382 123.341 86.5475 123.374 86.4434 123.371C86.334 123.368 86.2438 123.331 86.1727 123.259C86.1016 123.184 86.0679 123.074 86.0715 122.928ZM90.9418 128.493L91.011 125.724C91.0197 125.375 90.9468 125.113 90.7923 124.937C90.6378 124.761 90.3913 124.669 90.0529 124.661C89.6051 124.65 89.2741 124.762 89.0598 124.999C88.8454 125.236 88.7313 125.633 88.7174 126.19L88.6613 128.436L88.0131 128.42L88.12 124.14L88.6472 124.153L88.738 124.741L88.7692 124.742C88.9073 124.534 89.0975 124.376 89.3398 124.268C89.5823 124.157 89.8506 124.105 90.1448 124.112C90.6602 124.125 91.045 124.26 91.2991 124.516C91.5533 124.77 91.6735 125.17 91.6598 125.717L91.5901 128.509L90.9418 128.493ZM96.5354 124.35L96.5251 124.76L95.73 124.834C95.8007 124.927 95.8628 125.048 95.9163 125.198C95.9699 125.345 95.9945 125.511 95.9898 125.696C95.9794 126.115 95.8278 126.446 95.5352 126.689C95.2426 126.932 94.8464 127.047 94.3465 127.034C94.219 127.031 94.0995 127.018 93.988 126.994C93.7084 127.133 93.5659 127.313 93.5603 127.534C93.5574 127.651 93.6034 127.74 93.6983 127.8C93.7932 127.857 93.9579 127.888 94.1922 127.894L94.9498 127.913C95.4132 127.924 95.7661 128.031 96.0085 128.232C96.2536 128.434 96.3714 128.721 96.3621 129.093C96.3503 129.567 96.1512 129.923 95.765 130.16C95.3786 130.401 94.821 130.512 94.092 130.494C93.5323 130.48 93.1028 130.365 92.8034 130.149C92.5066 129.933 92.3629 129.635 92.3724 129.255C92.379 128.995 92.4679 128.772 92.6393 128.586C92.8106 128.4 93.0481 128.277 93.3518 128.217C93.2437 128.165 93.1532 128.085 93.0803 127.979C93.01 127.874 92.9766 127.752 92.9801 127.614C92.984 127.457 93.029 127.322 93.1153 127.207C93.2015 127.092 93.3358 126.982 93.5182 126.877C93.2991 126.78 93.1221 126.621 92.987 126.399C92.8545 126.176 92.7917 125.925 92.7987 125.644C92.8105 125.175 92.96 124.818 93.2475 124.572C93.5351 124.324 93.9366 124.207 94.452 124.22C94.6759 124.225 94.877 124.256 95.0553 124.313L96.5354 124.35ZM92.9974 129.263C92.9917 129.495 93.0849 129.673 93.2772 129.797C93.4694 129.922 93.7478 129.989 94.1122 129.998C94.6563 130.012 95.0606 129.94 95.325 129.782C95.592 129.627 95.729 129.411 95.7359 129.132C95.7417 128.9 95.6742 128.737 95.5333 128.642C95.3923 128.55 95.124 128.499 94.7282 128.49L93.9511 128.47C93.657 128.463 93.4261 128.527 93.2586 128.664C93.0911 128.8 93.004 129 92.9974 129.263ZM93.4396 125.644C93.4321 125.943 93.511 126.172 93.6764 126.33C93.8418 126.488 94.0755 126.57 94.3775 126.578C95.0101 126.594 95.3341 126.294 95.3494 125.68C95.3655 125.037 95.0533 124.707 94.4129 124.691C94.1083 124.684 93.8719 124.76 93.7038 124.92C93.5357 125.08 93.4476 125.321 93.4396 125.644Z" fill="white"/>
</g>
<defs>
<clipPath id="clip0_26_73">
<rect width="325" height="324" fill="white"/>
</clipPath>
</defs>
</svg>
