<svg width="362" height="362" viewBox="0 0 362 362" fill="none" xmlns="http://www.w3.org/2000/svg">
<path d="M362 276.858H0V277.039H362V276.858Z" fill="#EBEBEB"/>
<path d="M325.728 288.507H301.749V288.688H325.728V288.507Z" fill="#EBEBEB"/>
<path d="M239.803 290.476H233.512V290.657H239.803V290.476Z" fill="#EBEBEB"/>
<path d="M301.024 281.788H287.131V281.969H301.024V281.788Z" fill="#EBEBEB"/>
<path d="M69.251 283.004H37.9814V283.185H69.251V283.004Z" fill="#EBEBEB"/>
<path d="M80.2841 283.004H75.7012V283.185H80.2841V283.004Z" fill="#EBEBEB"/>
<path d="M163.009 286.06H95.1846V286.241H163.009V286.06Z" fill="#EBEBEB"/>
<path d="M171.588 244.567H31.7909C30.6957 244.565 29.6461 244.129 28.8723 243.354C28.0986 242.579 27.6641 241.528 27.6641 240.433V43.9179C27.6736 42.829 28.1124 41.7879 28.885 41.0206C29.6577 40.2534 30.7019 39.8219 31.7909 39.8201H171.588C172.684 39.8201 173.736 40.2556 174.511 41.0309C175.286 41.8062 175.722 42.8577 175.722 43.9541V240.433C175.722 241.53 175.286 242.581 174.511 243.356C173.736 244.132 172.684 244.567 171.588 244.567ZM31.7909 39.9649C30.7437 39.9668 29.7401 40.3841 29.0003 41.1252C28.2605 41.8664 27.8451 42.8708 27.8451 43.9179V240.433C27.8451 241.48 28.2605 242.485 29.0003 243.226C29.7401 243.967 30.7437 244.384 31.7909 244.386H171.588C172.635 244.382 173.639 243.965 174.379 243.224C175.12 242.484 175.537 241.48 175.541 240.433V43.9179C175.537 42.8707 175.12 41.8674 174.379 41.1269C173.639 40.3864 172.635 39.9687 171.588 39.9649H31.7909Z" fill="#EBEBEB"/>
<path d="M328.196 244.567H188.392C187.297 244.563 186.247 244.127 185.473 243.352C184.698 242.578 184.262 241.528 184.258 240.433V43.9179C184.269 42.8284 184.71 41.7872 185.483 41.0202C186.257 40.2531 187.302 39.8219 188.392 39.8201H328.196C329.284 39.8238 330.326 40.2561 331.097 41.0232C331.868 41.7902 332.306 42.8303 332.316 43.9179V240.433C332.317 240.975 332.211 241.512 332.004 242.013C331.798 242.514 331.495 242.97 331.112 243.353C330.73 243.737 330.275 244.042 329.775 244.25C329.275 244.459 328.738 244.566 328.196 244.567ZM188.392 39.9649C187.345 39.9687 186.341 40.3864 185.601 41.1269C184.86 41.8674 184.443 42.8707 184.439 43.9179V240.433C184.443 241.48 184.86 242.484 185.601 243.224C186.341 243.965 187.345 244.382 188.392 244.386H328.196C329.243 244.382 330.247 243.965 330.987 243.224C331.728 242.484 332.145 241.48 332.149 240.433V43.9179C332.145 42.8707 331.728 41.8674 330.987 41.1269C330.247 40.3864 329.243 39.9687 328.196 39.9649H188.392Z" fill="#EBEBEB"/>
<path d="M85.2006 206.746H73.3125V273.122H85.2006V206.746Z" fill="#F0F0F0"/>
<path d="M154.951 273.122H73.3125V276.727H154.951V273.122Z" fill="#F0F0F0"/>
<path d="M154.951 206.746H84.2451V273.122H154.951V206.746Z" fill="#F5F5F5"/>
<path d="M150.273 213.754H88.9141V237.154H150.273V213.754Z" fill="#F0F0F0"/>
<path d="M150.273 242.721H88.9141V266.121H150.273V242.721Z" fill="#F0F0F0"/>
<path d="M134.121 218.518H105.081C104.501 218.518 104.031 218.988 104.031 219.568V220.031C104.031 220.611 104.501 221.081 105.081 221.081H134.121C134.7 221.081 135.17 220.611 135.17 220.031V219.568C135.17 218.988 134.7 218.518 134.121 218.518Z" fill="#F5F5F5"/>
<path d="M134.121 247.492H105.081C104.501 247.492 104.031 247.962 104.031 248.542V249.005C104.031 249.585 104.501 250.055 105.081 250.055H134.121C134.7 250.055 135.17 249.585 135.17 249.005V248.542C135.17 247.962 134.7 247.492 134.121 247.492Z" fill="#F5F5F5"/>
<path d="M316.489 71.5747H147.298V168.504H316.489V71.5747Z" fill="#E6E6E6"/>
<path d="M318.994 71.5747H148.471V168.504H318.994V71.5747Z" fill="#F0F0F0"/>
<path d="M315.483 75.5278H151.996V164.544H315.483V75.5278Z" fill="#FAFAFA"/>
<path d="M172.059 164.544L192.736 75.5278H219.843L199.165 164.544H172.059Z" fill="white"/>
<path d="M203.553 164.544L224.223 75.5278H236.466L215.788 164.544H203.553Z" fill="white"/>
<path d="M252.118 164.544L272.796 75.5278H293.698L273.027 164.544H252.118Z" fill="white"/>
<path d="M315.476 75.5278H315.027V164.544H315.476V75.5278Z" fill="#E6E6E6"/>
<path d="M238.818 71.5747H228.653V168.504H238.818V71.5747Z" fill="#F0F0F0"/>
<path d="M228.654 75.5278H228.205V164.544H228.654V75.5278Z" fill="#E6E6E6"/>
<path d="M233.909 71.5747H233.555V168.504H233.909V71.5747Z" fill="#E6E6E6"/>
<path d="M100.491 73.1384H55.5166V142.085H100.491V73.1384Z" fill="#E6E6E6"/>
<path d="M104.3 73.1384H56.5664V142.085H104.3V73.1384Z" fill="#F5F5F5"/>
<path d="M101.251 76.1794H59.6064V139.044H101.251V76.1794Z" fill="white"/>
<path d="M93.7363 86.5107H67.1221V122.993H93.7363V86.5107Z" fill="#F5F5F5"/>
<path d="M326.365 140.456V199.752C326.366 200.917 326.137 202.07 325.692 203.147C325.246 204.223 324.593 205.201 323.769 206.025C322.945 206.849 321.967 207.502 320.891 207.947C319.814 208.393 318.661 208.622 317.496 208.621H205.616C203.264 208.621 201.008 207.686 199.345 206.023C197.681 204.36 196.747 202.104 196.747 199.752V140.456C196.747 140.11 196.769 139.764 196.812 139.421C197.058 137.258 198.091 135.26 199.715 133.81C201.338 132.36 203.439 131.558 205.616 131.558H317.496C319.668 131.557 321.765 132.354 323.389 133.796C325.013 135.239 326.051 137.227 326.307 139.385C326.35 139.74 326.369 140.098 326.365 140.456Z" fill="white" stroke="#407BFF" stroke-linecap="round" stroke-linejoin="round"/>
<path d="M222.695 177.995C221.049 173.942 220.548 169.514 221.247 165.195C222.579 157.521 228.574 150.599 236.212 149.086C247.318 146.914 257.932 155.653 269.27 155.175C277.234 154.842 285.495 150.034 292.626 153.539C303.92 159.099 300.749 176.403 295.305 184.844C289.65 193.619 279.341 198.731 269.313 200.599" stroke="#407BFF" stroke-linecap="round" stroke-linejoin="round" stroke-dasharray="5 5"/>
<path d="M225.446 214.753L237.465 219.655L244.69 213.58L244.002 190.723L239.962 189.073L223.716 205.015L225.446 214.753Z" fill="white" stroke="#263238" stroke-miterlimit="10"/>
<path d="M232.208 225.164L225.229 222.319C224.89 222.182 224.582 221.98 224.323 221.723C224.063 221.467 223.857 221.161 223.716 220.825C223.576 220.488 223.503 220.127 223.503 219.762C223.503 219.397 223.575 219.036 223.716 218.699C223.852 218.36 224.055 218.053 224.311 217.793C224.568 217.534 224.873 217.328 225.21 217.188C225.547 217.048 225.909 216.976 226.273 216.977C226.638 216.978 226.999 217.051 227.336 217.193L234.286 220.096C234.624 220.233 234.932 220.435 235.192 220.692C235.452 220.948 235.658 221.253 235.798 221.59C235.939 221.927 236.012 222.288 236.012 222.653C236.012 223.018 235.94 223.379 235.799 223.716C235.511 224.381 234.972 224.905 234.3 225.176C233.628 225.447 232.877 225.443 232.208 225.164Z" fill="#407BFF"/>
<path d="M241.997 189.905L236.234 204.031" stroke="#263238" stroke-miterlimit="10"/>
<path d="M237.472 204.516C237.377 204.753 237.213 204.957 237.002 205.102C236.791 205.247 236.541 205.326 236.285 205.329C236.029 205.332 235.778 205.259 235.563 205.119C235.348 204.98 235.18 204.78 235.079 204.544C234.978 204.309 234.949 204.049 234.995 203.797C235.042 203.545 235.162 203.313 235.341 203.129C235.52 202.946 235.749 202.819 235.999 202.766C236.25 202.712 236.51 202.734 236.748 202.829C237.067 202.958 237.322 203.207 237.458 203.523C237.593 203.839 237.599 204.196 237.472 204.516Z" fill="#263238"/>
<path opacity="0.2" d="M232.208 225.164L225.229 222.319C224.89 222.182 224.582 221.98 224.323 221.723C224.063 221.467 223.857 221.161 223.716 220.825C223.576 220.488 223.503 220.127 223.503 219.762C223.503 219.397 223.575 219.036 223.716 218.699C223.852 218.36 224.055 218.053 224.311 217.793C224.568 217.534 224.873 217.328 225.21 217.188C225.547 217.048 225.909 216.976 226.273 216.977C226.638 216.978 226.999 217.051 227.336 217.193L234.286 220.096C234.624 220.233 234.932 220.435 235.192 220.692C235.452 220.948 235.658 221.253 235.798 221.59C235.939 221.927 236.012 222.288 236.012 222.653C236.012 223.018 235.94 223.379 235.799 223.716C235.511 224.381 234.972 224.905 234.3 225.176C233.628 225.447 232.877 225.443 232.208 225.164Z" fill="black"/>
<path d="M208.389 205.261C210.896 198.722 215.899 193.447 222.296 190.596C228.693 187.746 235.961 187.553 242.5 190.061C249.039 192.569 254.314 197.571 257.165 203.969C260.015 210.366 260.208 217.633 257.7 224.172" stroke="#263238" stroke-miterlimit="10"/>
<path d="M258.439 224.398L257.128 223.734L256.463 225.044L257.774 225.709L258.439 224.398Z" stroke="#263238" stroke-miterlimit="10"/>
<path d="M209.113 205.549L207.802 204.885L207.137 206.195L208.448 206.86L209.113 205.549Z" stroke="#263238" stroke-miterlimit="10"/>
<path d="M224.693 182.267L265.107 199.795" stroke="#263238" stroke-miterlimit="10"/>
<path d="M266.041 200.005C265.983 200.164 265.873 200.297 265.727 200.383C265.582 200.468 265.412 200.5 265.246 200.474C265.079 200.447 264.927 200.363 264.816 200.237C264.705 200.11 264.641 199.949 264.636 199.781C264.633 199.674 264.653 199.568 264.696 199.47C264.738 199.373 264.802 199.286 264.882 199.215C264.962 199.145 265.056 199.093 265.159 199.063C265.261 199.034 265.369 199.027 265.474 199.044C265.579 199.061 265.679 199.101 265.768 199.161C265.856 199.221 265.929 199.299 265.983 199.391C266.038 199.483 266.071 199.586 266.081 199.692C266.091 199.798 266.077 199.905 266.041 200.005Z" fill="#407BFF"/>
<path d="M225.446 182.405C225.452 182.513 225.433 182.62 225.392 182.72C225.351 182.82 225.288 182.91 225.207 182.982C225.127 183.054 225.031 183.108 224.928 183.138C224.824 183.169 224.715 183.176 224.608 183.159C224.501 183.141 224.4 183.101 224.311 183.039C224.222 182.978 224.148 182.897 224.095 182.803C224.041 182.709 224.009 182.605 224.001 182.497C223.993 182.389 224.009 182.281 224.049 182.18C224.043 182.072 224.061 181.964 224.103 181.865C224.144 181.765 224.207 181.675 224.287 181.603C224.368 181.531 224.463 181.477 224.567 181.447C224.671 181.416 224.78 181.409 224.886 181.426C224.993 181.444 225.095 181.484 225.184 181.546C225.272 181.607 225.346 181.688 225.4 181.782C225.454 181.876 225.486 181.98 225.494 182.088C225.502 182.196 225.485 182.304 225.446 182.405Z" fill="#407BFF"/>
<path d="M326.307 139.385H196.798C197.052 137.225 198.091 135.235 199.717 133.792C201.343 132.349 203.442 131.554 205.616 131.558H317.496C319.668 131.557 321.765 132.354 323.389 133.796C325.013 135.239 326.052 137.227 326.307 139.385Z" fill="#407BFF"/>
<path d="M298.838 135.084C298.838 135.37 298.753 135.65 298.594 135.888C298.435 136.127 298.209 136.312 297.945 136.422C297.68 136.531 297.389 136.56 297.108 136.504C296.827 136.448 296.569 136.31 296.367 136.108C296.164 135.905 296.026 135.647 295.97 135.366C295.914 135.086 295.943 134.794 296.053 134.53C296.162 134.265 296.348 134.039 296.586 133.88C296.824 133.721 297.104 133.636 297.39 133.636C297.774 133.636 298.143 133.789 298.414 134.06C298.686 134.332 298.838 134.7 298.838 135.084Z" fill="white"/>
<path d="M304.775 136.532C305.575 136.532 306.223 135.884 306.223 135.084C306.223 134.284 305.575 133.636 304.775 133.636C303.975 133.636 303.327 134.284 303.327 135.084C303.327 135.884 303.975 136.532 304.775 136.532Z" fill="white"/>
<path d="M313.608 135.084C313.608 135.37 313.523 135.65 313.364 135.888C313.205 136.127 312.979 136.312 312.714 136.422C312.449 136.531 312.158 136.56 311.877 136.504C311.597 136.448 311.339 136.31 311.136 136.108C310.934 135.905 310.796 135.647 310.74 135.366C310.684 135.086 310.713 134.794 310.822 134.53C310.932 134.265 311.117 134.039 311.355 133.88C311.594 133.721 311.874 133.636 312.16 133.636C312.544 133.636 312.912 133.789 313.184 134.06C313.455 134.332 313.608 134.7 313.608 135.084Z" fill="white"/>
<path d="M321.507 142.049H308.366V163.834H321.507V142.049Z" stroke="#407BFF" stroke-width="0.75" stroke-linecap="round" stroke-linejoin="round"/>
<path d="M313.608 143.91H310.705V146.813H313.608V143.91Z" fill="#407BFF"/>
<path d="M319.516 143.91H316.612V146.813H319.516V143.91Z" fill="#407BFF"/>
<path d="M313.608 148.797H310.705V151.7H313.608V148.797Z" fill="#407BFF"/>
<path d="M319.516 148.797H316.612V151.7H319.516V148.797Z" fill="#407BFF"/>
<path d="M313.608 153.684H310.705V156.587H313.608V153.684Z" fill="#407BFF"/>
<path d="M319.516 153.684H316.612V156.587H319.516V153.684Z" fill="#407BFF"/>
<path d="M313.608 158.563H310.705V161.466H313.608V158.563Z" fill="#407BFF"/>
<path d="M319.516 158.563H316.612V161.466H319.516V158.563Z" fill="#407BFF"/>
<path opacity="0.1" d="M319.516 143.91H316.612V146.813H319.516V143.91Z" fill="black"/>
<path opacity="0.2" d="M313.608 148.797H310.705V151.7H313.608V148.797Z" fill="black"/>
<path opacity="0.3" d="M319.516 148.797H316.612V151.7H319.516V148.797Z" fill="black"/>
<path opacity="0.4" d="M313.608 153.684H310.705V156.587H313.608V153.684Z" fill="black"/>
<path opacity="0.5" d="M319.516 153.684H316.612V156.587H319.516V153.684Z" fill="black"/>
<path opacity="0.6" d="M313.608 158.563H310.705V161.466H313.608V158.563Z" fill="black"/>
<path opacity="0.7" d="M319.516 158.563H316.612V161.466H319.516V158.563Z" fill="black"/>
<path d="M55.9072 125.455C61.0669 101.693 74.2033 80.4129 93.1329 65.1515C112.063 49.89 135.645 41.5667 159.96 41.5649C209.851 41.5649 251.467 74.8689 263 121.205" stroke="#E6E6E6" stroke-linecap="round" stroke-linejoin="round" stroke-dasharray="4 4"/>
<path d="M55.9072 115.275C53.6685 115.275 51.4517 115.716 49.3835 116.573C47.3153 117.43 45.4361 118.686 43.8535 120.27C42.2708 121.853 41.0156 123.733 40.1595 125.801C39.3034 127.87 38.8633 130.087 38.8643 132.326C38.8643 135.707 41.4707 140.652 42.6797 142.758C43.2083 143.685 43.7078 144.619 44.1929 145.56L47.5667 152.185C47.7705 152.587 48.0807 152.927 48.4636 153.165C48.8465 153.404 49.2875 153.533 49.7387 153.539H62.0467C62.4979 153.533 62.939 153.404 63.3219 153.165C63.7048 152.927 64.015 152.587 64.2187 152.185L67.5926 145.56C68.0704 144.619 68.5772 143.685 69.1057 142.758C70.3148 140.652 72.9212 135.707 72.9212 132.326C72.9212 127.81 71.1298 123.479 67.9401 120.282C64.7504 117.086 60.4229 115.285 55.9072 115.275Z" fill="#407BFF"/>
<path d="M52.2802 153.539C52.2802 153.539 51.6937 137.806 48.2547 138.335C44.8157 138.863 46.6474 143.96 55.2341 144.235C63.8207 144.511 63.3574 138.313 61.5474 138.32C59.7374 138.328 56.8196 145.249 58.7527 153.524" stroke="#FAFAFA" stroke-linecap="round" stroke-linejoin="round"/>
<path d="M46.6182 121.299C48.9277 118.873 52.3595 117.201 57.3623 117.838" stroke="#FAFAFA" stroke-linecap="round" stroke-linejoin="round"/>
<path d="M43.585 124.818C44.0094 124.135 44.5341 123.52 45.1416 122.993" stroke="#FAFAFA" stroke-linecap="round" stroke-linejoin="round"/>
<path d="M64.0887 161.126C64.0887 161.206 64.0887 161.278 64.0887 161.351C64.0746 161.692 64.0261 162.032 63.944 162.364C63.7563 163.138 63.3808 163.855 62.8507 164.449C62.4737 164.878 62.0106 165.221 61.4916 165.459C60.9726 165.696 60.4094 165.82 59.8389 165.825H50.9771C50.004 165.792 49.0703 165.432 48.3259 164.805C47.5814 164.177 47.0694 163.318 46.872 162.364C46.7899 162.032 46.7414 161.692 46.7272 161.351C46.7272 161.278 46.7272 161.206 46.7272 161.126C46.7198 160.984 46.7198 160.841 46.7272 160.699C46.7237 160.656 46.7237 160.612 46.7272 160.569C46.8424 159.549 47.2755 158.592 47.9653 157.832C48.3422 157.404 48.8054 157.06 49.3244 156.823C49.8434 156.586 50.4066 156.461 50.9771 156.456H59.8316C60.76 156.492 61.6526 156.823 62.3784 157.403C63.1042 157.983 63.625 158.78 63.8643 159.678C63.961 159.977 64.0241 160.285 64.0526 160.598C64.0561 160.641 64.0561 160.685 64.0526 160.728C64.0711 160.86 64.0831 160.993 64.0887 161.126Z" fill="#407BFF"/>
<path opacity="0.2" d="M63.8636 159.649H46.9365C47.1422 158.975 47.4931 158.355 47.9646 157.832C48.3416 157.404 48.8047 157.06 49.3237 156.823C49.8427 156.586 50.4059 156.461 50.9764 156.456H59.831C60.7555 156.49 61.6453 156.817 62.3707 157.392C63.096 157.966 63.6191 158.757 63.8636 159.649Z" fill="black"/>
<path opacity="0.2" d="M63.9367 162.364C63.7491 163.139 63.3736 163.855 62.8435 164.449C62.4665 164.878 62.0034 165.222 61.4844 165.459C60.9654 165.696 60.4022 165.821 59.8317 165.825H50.9772C50.0041 165.792 49.0704 165.432 48.3259 164.805C47.5815 164.177 47.0695 163.318 46.8721 162.364H63.9367Z" fill="black"/>
<g opacity="0.3">
<path opacity="0.3" d="M64.0886 161.126C64.0886 161.206 64.0886 161.278 64.0886 161.351H46.7126C46.7126 161.278 46.7126 161.206 46.7126 161.126C46.7052 160.984 46.7052 160.841 46.7126 160.699C46.709 160.656 46.709 160.612 46.7126 160.569H64.0524C64.0559 160.612 64.0559 160.656 64.0524 160.699C64.0719 160.841 64.084 160.983 64.0886 161.126Z" fill="black"/>
</g>
<path d="M55.4001 170.763C55.4015 170.989 55.3357 171.211 55.2109 171.4C55.086 171.589 54.9079 171.737 54.699 171.825C54.4901 171.912 54.2599 171.936 54.0375 171.893C53.8151 171.849 53.6106 171.741 53.4499 171.581C53.2892 171.422 53.1795 171.218 53.1348 170.996C53.0901 170.774 53.1123 170.543 53.1987 170.334C53.285 170.124 53.4317 169.945 53.6199 169.819C53.8082 169.693 54.0296 169.626 54.2562 169.626C54.4061 169.625 54.5547 169.654 54.6934 169.71C54.8322 169.767 54.9583 169.851 55.0646 169.956C55.171 170.062 55.2553 170.188 55.3129 170.326C55.3705 170.464 55.4001 170.613 55.4001 170.763Z" fill="#407BFF"/>
<path d="M54.2568 170.763V198.6H60.9756V248.81" stroke="#407BFF" stroke-miterlimit="10"/>
<path d="M94.3736 76.3748V74.7024L93.3382 74.3983C93.2791 73.8329 93.1726 73.2734 93.0197 72.7259L93.8885 72.0598L93.2586 70.5104L92.1798 70.619C91.9157 70.1123 91.6106 69.6281 91.2676 69.171L91.7961 68.2298L90.6232 67.0352L89.6748 67.5565C89.2382 67.2029 88.7732 66.8857 88.2847 66.6081L88.415 65.5366L86.8729 64.885L86.1924 65.7248C85.6513 65.5594 85.0964 65.443 84.5344 65.3773L84.2448 64.3347H82.5651L82.261 65.37C81.6981 65.4262 81.141 65.5304 80.5958 65.6814L79.9225 64.8198L78.3732 65.4424L78.4818 66.514C77.9765 66.7834 77.4924 67.0907 77.0338 67.4334L76.0998 66.8977L74.9269 68.0561L75.4482 69.0118C75.0855 69.4484 74.7655 69.9187 74.4925 70.4163L73.421 70.2788L72.7622 71.8209L73.602 72.4942C73.4364 73.0402 73.32 73.5999 73.2545 74.1666L72.2119 74.4562V76.1214L73.2472 76.4328C73.3063 76.9982 73.4129 77.5576 73.5658 78.1052L72.697 78.764L73.3269 80.3206L74.4056 80.2048C74.6636 80.715 74.969 81.1998 75.3179 81.6528L74.7821 82.6012L75.9622 83.7886L76.9107 83.2746C77.3489 83.6338 77.8163 83.9559 78.308 84.2375L78.1777 85.309L79.7198 85.9606L80.4004 85.128C80.9474 85.2878 81.5068 85.4017 82.0728 85.4683L82.3552 86.5108H84.0276L84.3317 85.4755C84.8977 85.4205 85.4575 85.3138 86.0041 85.157L86.6702 86.0258L88.2196 85.4031L88.111 84.3316C88.6172 84.0639 89.1014 83.7565 89.559 83.4121L90.5002 83.9479L91.6948 82.775L91.1807 81.8193C91.5418 81.3815 91.8617 80.9113 92.1364 80.4148L93.2079 80.5523L93.8667 79.0102L93.0269 78.3296C93.1867 77.7875 93.3006 77.2329 93.3672 76.6717L94.3736 76.3748ZM83.2602 79.336C82.4933 79.3274 81.7462 79.0918 81.1132 78.6589C80.4802 78.226 79.9896 77.6153 79.7034 76.9038C79.4172 76.1923 79.3482 75.412 79.5052 74.6613C79.6622 73.9107 80.038 73.2233 80.5853 72.6861C81.1326 72.1489 81.8268 71.786 82.5803 71.643C83.3337 71.5 84.1126 71.5835 84.8187 71.8829C85.5247 72.1823 86.1262 72.6841 86.5472 73.3251C86.9682 73.9661 87.1899 74.7175 87.1842 75.4843C87.1805 75.9952 87.0758 76.5002 86.8764 76.9706C86.677 77.4409 86.3866 77.8672 86.0221 78.2251C85.6575 78.5829 85.2258 78.8653 84.7519 79.0559C84.2779 79.2465 83.771 79.3417 83.2602 79.336Z" fill="#407BFF"/>
<path d="M295.349 99.8396L292.952 97.3563C292.88 96.3064 292.706 95.2661 292.431 94.2503L293.705 91.615L290.57 86.4963L287.674 86.4456C286.901 85.7369 286.059 85.1064 285.162 84.5632L284.033 81.3197L278.197 79.9224L275.714 82.3116C274.663 82.3829 273.623 82.5599 272.608 82.8401L269.972 81.5514L264.861 84.708L264.81 87.604C264.095 88.373 263.467 89.2179 262.935 90.1235L259.692 91.224L258.287 97.016L260.684 99.4993C260.748 100.557 260.923 101.605 261.205 102.627L259.916 105.306L263.051 110.425L265.947 110.482C266.72 111.191 267.562 111.822 268.459 112.365L269.582 115.601L275.424 117.006L277.893 114.616C278.952 114.545 280.002 114.371 281.028 114.095L283.671 115.369L288.789 112.242L288.847 109.346C289.556 108.572 290.184 107.727 290.722 106.826L293.944 105.704L295.349 99.8396ZM275.207 105.023C273.909 104.711 272.733 104.022 271.828 103.041C270.922 102.061 270.328 100.834 270.119 99.5155C269.911 98.1971 270.099 96.8467 270.658 95.6349C271.217 94.4231 272.123 93.4044 273.262 92.7076C274.4 92.0109 275.72 91.6673 277.053 91.7204C278.387 91.7736 279.675 92.221 280.754 93.0061C281.833 93.7912 282.655 94.8788 283.117 96.1312C283.578 97.3837 283.657 98.7448 283.345 100.042C282.922 101.78 281.829 103.279 280.304 104.213C278.779 105.146 276.946 105.438 275.207 105.023Z" fill="#263238"/>
<path d="M167.07 39.096L164.065 37.0326C163.768 35.9592 163.363 34.9186 162.856 33.9266L163.624 30.8786L159.28 26.2378L156.268 26.8025C155.318 26.2194 154.311 25.7343 153.263 25.3545L151.41 22.2268L145.06 22.0168L142.997 25.0214C141.923 25.3131 140.882 25.7159 139.891 26.2233L136.887 25.4486L132.246 29.7926L132.803 32.7972C132.228 33.7489 131.755 34.7584 131.391 35.809L128.271 37.6625L128.054 44.0047L131.044 46.1043C131.343 47.1871 131.756 48.2354 132.275 49.232L131.551 52.2439L135.895 56.8847L138.906 56.3344C139.86 56.9117 140.866 57.3965 141.911 57.7824L143.757 60.8956L150.107 61.1201L152.163 58.1082C153.249 57.8167 154.302 57.414 155.305 56.9064L158.31 57.6739L162.951 53.3298L162.4 50.3252C162.969 49.3731 163.442 48.3666 163.812 47.3206L166.933 45.4672L167.07 39.096ZM147.29 48.7035C145.879 48.6554 144.514 48.1897 143.367 47.3655C142.22 46.5413 141.344 45.3955 140.849 44.0731C140.353 42.7507 140.261 41.3111 140.584 39.9363C140.907 38.5616 141.631 37.3136 142.663 36.3501C143.695 35.3866 144.99 34.7509 146.384 34.5235C147.778 34.2961 149.208 34.4872 150.493 35.0725C151.778 35.6579 152.861 36.6113 153.604 37.812C154.347 39.0128 154.717 40.407 154.668 41.8182C154.6 43.7087 153.785 45.4951 152.402 46.7857C151.019 48.0764 149.181 48.766 147.29 48.7035Z" fill="#263238"/>
<path d="M154.636 48.6315C158.538 44.7297 158.538 38.4036 154.636 34.5018C150.734 30.6 144.408 30.6 140.506 34.5018C136.604 38.4036 136.604 44.7297 140.506 48.6315C144.408 52.5333 150.734 52.5333 154.636 48.6315Z" stroke="white" stroke-miterlimit="10"/>
<path d="M257.252 73.1239L258.208 69.1564L255.913 67.846C256.087 66.4753 256.143 65.0922 256.079 63.7119L258.504 62.597L257.86 58.5498L255.239 58.2385C254.887 56.8872 254.417 55.5694 253.835 54.2999L255.623 52.3452L253.451 48.8555L250.902 49.5795C250.055 48.4826 249.118 47.4583 248.101 46.5169L249.056 44.0626L245.74 41.6517L243.67 43.2734C242.464 42.5924 241.205 42.0112 239.905 41.5358L239.796 38.9077L235.807 37.952L234.518 40.2399C233.143 40.0687 231.755 40.013 230.37 40.0733L229.211 37.6479L225.172 38.2851L224.853 40.9059C223.519 41.2613 222.218 41.7312 220.965 42.3105L219.025 40.5439L215.528 42.6797L216.252 45.2282C215.154 46.0774 214.134 47.0223 213.204 48.0518L210.684 47.0962L208.266 50.4121L209.96 52.4827C209.267 53.6877 208.683 54.9525 208.215 56.262L205.573 56.3851L204.624 60.3453L206.919 61.6486C206.746 63.0266 206.688 64.4166 206.746 65.8043L204.32 66.9048L204.972 70.952L207.586 71.2705C207.94 72.6025 208.41 73.901 208.99 75.1511L207.195 77.1059L209.367 80.5956L211.908 79.8716C212.756 80.9657 213.696 81.9854 214.717 82.9197L213.761 85.4319L217.077 87.8429L219.155 86.2283C220.365 86.9087 221.629 87.4875 222.934 87.9587L223.043 90.6013L227.018 91.557L228.314 89.2619C229.692 89.4369 231.082 89.4926 232.469 89.4284L233.57 91.8538L237.61 91.2167L237.936 88.6103C239.265 88.2408 240.565 87.7713 241.824 87.2057L243.764 88.9868L247.261 86.8582L246.537 84.3025C247.631 83.4603 248.647 82.52 249.57 81.4934L252.054 82.3984L254.465 79.0825L252.843 77.0118C253.528 75.8094 254.106 74.5497 254.573 73.247L257.252 73.1239ZM228.408 77.1204C225.088 77.1128 221.908 75.7878 219.565 73.4365C217.222 71.0853 215.908 67.9002 215.912 64.5808C215.915 61.2614 217.237 58.0793 219.585 55.7335C221.934 53.3877 225.117 52.0701 228.437 52.0701C231.756 52.0701 234.94 53.3877 237.288 55.7335C239.637 58.0793 240.958 61.2614 240.962 64.5808C240.966 67.9002 239.652 71.0853 237.309 73.4365C234.966 75.7878 231.785 77.1128 228.466 77.1204H228.408Z" fill="#407BFF"/>
<path opacity="0.2" d="M257.252 73.1239L258.208 69.1564L255.913 67.846C256.087 66.4753 256.143 65.0922 256.079 63.7119L258.504 62.597L257.86 58.5498L255.239 58.2385C254.887 56.8872 254.417 55.5694 253.835 54.2999L255.623 52.3452L253.451 48.8555L250.902 49.5795C250.055 48.4826 249.118 47.4583 248.101 46.5169L249.056 44.0626L245.74 41.6517L243.67 43.2734C242.464 42.5924 241.205 42.0112 239.905 41.5358L239.796 38.9077L235.807 37.952L234.518 40.2399C233.143 40.0687 231.755 40.013 230.37 40.0733L229.211 37.6479L225.172 38.2851L224.853 40.9059C223.519 41.2613 222.218 41.7312 220.965 42.3105L219.025 40.5439L215.528 42.6797L216.252 45.2282C215.154 46.0774 214.134 47.0223 213.204 48.0518L210.684 47.0962L208.266 50.4121L209.96 52.4827C209.267 53.6877 208.683 54.9525 208.215 56.262L205.573 56.3851L204.624 60.3453L206.919 61.6486C206.746 63.0266 206.688 64.4166 206.746 65.8043L204.32 66.9048L204.972 70.952L207.586 71.2705C207.94 72.6025 208.41 73.901 208.99 75.1511L207.195 77.1059L209.367 80.5956L211.908 79.8716C212.756 80.9657 213.696 81.9854 214.717 82.9197L213.761 85.4319L217.077 87.8429L219.155 86.2283C220.365 86.9087 221.629 87.4875 222.934 87.9587L223.043 90.6013L227.018 91.557L228.314 89.2619C229.692 89.4369 231.082 89.4926 232.469 89.4284L233.57 91.8538L237.61 91.2167L237.936 88.6103C239.265 88.2408 240.565 87.7713 241.824 87.2057L243.764 88.9868L247.261 86.8582L246.537 84.3025C247.631 83.4603 248.647 82.52 249.57 81.4934L252.054 82.3984L254.465 79.0825L252.843 77.0118C253.528 75.8094 254.106 74.5497 254.573 73.247L257.252 73.1239ZM228.408 77.1204C225.088 77.1128 221.908 75.7878 219.565 73.4365C217.222 71.0853 215.908 67.9002 215.912 64.5808C215.915 61.2614 217.237 58.0793 219.585 55.7335C221.934 53.3877 225.117 52.0701 228.437 52.0701C231.756 52.0701 234.94 53.3877 237.288 55.7335C239.637 58.0793 240.958 61.2614 240.962 64.5808C240.966 67.9002 239.652 71.0853 237.309 73.4365C234.966 75.7878 231.785 77.1128 228.466 77.1204H228.408Z" fill="black"/>
<path d="M231.397 81.3268C240.51 81.3268 247.897 73.9395 247.897 64.8269C247.897 55.7142 240.51 48.3269 231.397 48.3269C222.285 48.3269 214.897 55.7142 214.897 64.8269C214.897 73.9395 222.285 81.3268 231.397 81.3268Z" stroke="white" stroke-miterlimit="10"/>
<path d="M319.19 107.688L315.034 107.666L312.66 111.083L311.393 107.123L307.418 105.914L310.792 103.489L310.705 99.3328L314.057 101.794L317.981 100.433L316.678 104.379L319.19 107.688Z" fill="#407BFF"/>
<path d="M322.238 122.486L323.585 120.329L322.579 117.99L325.047 118.606L326.959 116.919L327.132 119.46L329.326 120.763L326.966 121.712L326.409 124.202L324.772 122.247L322.238 122.486Z" fill="#407BFF"/>
<path d="M283.518 238.384L282.737 244.35L287.204 248.375L281.289 249.469L278.841 254.964L275.974 249.679L269.994 249.049L274.128 244.69L272.883 238.804L278.306 241.389L283.518 238.384Z" stroke="#407BFF" stroke-miterlimit="10"/>
<path d="M298.223 237.711L296.254 236.096L293.807 236.806L294.726 234.431L293.293 232.324L295.841 232.469L297.398 230.456L298.05 232.918L300.446 233.779L298.303 235.162L298.223 237.711Z" fill="#407BFF"/>
<path d="M181 330.738C261.882 330.738 327.45 327.039 327.45 322.477C327.45 317.915 261.882 314.216 181 314.216C100.117 314.216 34.5488 317.915 34.5488 322.477C34.5488 327.039 100.117 330.738 181 330.738Z" fill="#F5F5F5"/>
<path d="M92.9831 274.331C101.439 279.877 105.834 290.44 105.364 300.532C105.132 305.448 103.778 310.48 100.563 314.202C97.3489 317.923 92.7153 319.957 88.0744 321.442C83.3105 322.962 78.257 324.012 73.3121 323.266C68.3672 322.52 63.5091 319.733 61.3371 315.23C59.0493 310.495 60.0267 304.862 61.5978 299.852C63.1688 294.842 65.3191 289.846 65.2178 284.597C65.1743 280.514 63.7698 276.582 62.7562 272.629C61.7426 268.676 61.0692 264.419 62.4448 260.575C63.8204 256.73 67.8386 253.567 71.8568 254.428" stroke="#263238" stroke-linecap="round" stroke-linejoin="round" stroke-dasharray="5 5"/>
<path d="M144.8 98.8767C144.8 98.8767 138.219 93.0413 131.435 98.8767C124.651 104.712 123.848 119.793 118.809 126.454C118.809 126.454 121.545 132.087 132.369 132.774C143.193 133.462 154.994 122.472 154.994 122.472C154.994 122.472 156.819 96.4731 144.8 98.8767Z" fill="#263238"/>
<path d="M134.012 128.474C133.389 128.684 128.502 130.038 120.502 135.134L126.294 148.514C126.294 148.514 128.118 158.838 132.513 165.238L141.563 173.673L159.337 165.796L154.537 140.782L154.972 127.981C154.972 127.981 148.832 123.645 134.012 128.474Z" fill="#407BFF"/>
<path d="M148.789 114.146C148.699 115.052 148.282 115.895 147.616 116.516C146.95 117.137 146.08 117.494 145.169 117.52C144.456 118.496 143.625 119.379 142.693 120.148C143.475 126.201 147.29 126.201 147.29 126.201C141.288 136.105 133.99 128.474 133.99 128.474C134.768 128.21 135.455 127.729 135.968 127.087C136.481 126.446 136.8 125.671 136.886 124.854C136.955 124.053 136.844 123.246 136.561 122.494C131.312 122.421 128.597 118.816 128.763 113.487C128.93 108.158 132.137 103.286 132.137 103.286C135.59 104.64 141.817 102.909 141.817 102.909C141.513 111.091 145.263 112.517 145.263 112.517C145.263 112.517 149.317 110.772 148.789 114.146Z" fill="#B55B52"/>
<path d="M134.186 115.84C134.893 116.03 135.644 115.979 136.319 115.694C136.995 115.41 137.556 114.908 137.914 114.269" stroke="#263238" stroke-width="0.5" stroke-linecap="round" stroke-linejoin="round"/>
<path d="M136.706 110.309C136.706 110.786 136.431 111.17 136.134 111.156C135.837 111.141 135.605 110.743 135.62 110.265C135.634 109.787 135.895 109.404 136.199 109.411C136.503 109.418 136.727 109.823 136.706 110.309Z" fill="#263238"/>
<path d="M131.044 109.78C131.044 110.229 130.79 110.576 130.515 110.569C130.24 110.562 130.03 110.185 130.045 109.744C130.059 109.302 130.298 108.947 130.58 108.962C130.863 108.976 131.044 109.324 131.044 109.78Z" fill="#263238"/>
<path d="M136.742 107.036C136.742 107.036 138.024 106.913 139.088 108.484" stroke="#263238" stroke-width="0.75" stroke-linecap="round" stroke-linejoin="round"/>
<path d="M133.216 113.668V109.773L131.326 113.074C131.861 113.499 132.534 113.71 133.216 113.668Z" fill="#A02724"/>
<path d="M128.756 140.456L128.227 152.96L127.402 153.177C126.938 153.293 126.489 153.379 126.048 153.452C117.867 154.842 113.327 150.1 113.327 150.1L120.502 135.164L128.756 140.456Z" fill="#407BFF"/>
<path d="M131.689 106.16C131.219 106.156 130.754 106.247 130.32 106.428" stroke="#263238" stroke-width="0.75" stroke-linecap="round" stroke-linejoin="round"/>
<path d="M133.303 184.453C133.303 184.453 134.027 205.044 136.01 235.807C137.994 266.569 148.84 308.301 148.84 308.301H159.338C159.338 308.301 153.546 230.753 153.155 211.364C153.155 211.364 178.444 276.691 198.673 298.187L205.42 293.973C205.42 293.973 178.024 229.906 175.07 220.639C172.116 211.372 168.887 177.199 159.338 165.818H142.201L133.303 184.453Z" fill="#263238"/>
<path d="M152.641 310.321L154.139 319.009L160.648 318.835L159.569 310.321H152.641Z" fill="#B55B52"/>
<path d="M200.548 299.968C200.693 300.257 204.305 306.324 204.305 306.324L208.78 301.56L204.667 295.928L200.548 299.968Z" fill="#B55B52"/>
<path d="M146.762 307.208L162.263 306.013L161.466 311.58L149.412 312.638L146.762 307.208Z" fill="#407BFF"/>
<path d="M196.189 299.461L206.369 291.736L207.817 296.724L199.585 302.422L196.189 299.461Z" fill="#407BFF"/>
<path d="M86.1562 270.255L86.2142 245.986L106.674 256.477L86.1562 270.255Z" fill="#407BFF"/>
<path d="M194.445 85.2944L106.681 256.477L100.187 253.154L92.5778 249.251L86.2139 245.986L173.97 74.7964L181.007 78.4019L189.225 82.6156L194.445 85.2944Z" fill="#407BFF"/>
<path opacity="0.4" d="M94.4165 264.709L86.1484 270.255L86.1774 260.683L94.4165 264.709Z" fill="black"/>
<path opacity="0.2" d="M194.444 85.2943L106.681 256.477L100.187 253.154L189.224 82.6155L194.444 85.2943Z" fill="black"/>
<path opacity="0.2" d="M181.007 78.4019L92.5778 249.251L86.2139 245.986L173.97 74.7964L181.007 78.4019Z" fill="black"/>
<path opacity="0.4" d="M106.674 256.477L86.1484 270.255L86.1774 260.285L86.2064 245.979L106.674 256.477Z" fill="black"/>
<path d="M176.482 154.436C163.37 167.823 146.074 160.851 146.074 160.851C144.886 160.579 143.839 159.884 143.127 158.896L138.385 157.202L140.195 152.626L145.357 154.016L149.122 156.804C162.646 159.179 169.329 150.867 169.329 150.867C168.647 147.248 167.521 143.727 165.976 140.383L171.044 130.537L171.283 130.906C178.922 143.214 176.482 154.436 176.482 154.436Z" fill="#B55B52"/>
<path d="M136.409 168.272L132.789 169.72C129.596 172.312 125.252 170.864 125.252 170.864C111.785 174.325 105.885 170.06 105.885 170.06C107.745 163.972 111.575 156.884 114.913 151.323C117.023 152.644 119.419 153.439 121.9 153.64C118.634 159.027 115.514 165.716 115.514 165.716C118.902 167.49 127.047 164.732 127.047 164.732L135.388 163.914L136.409 168.272Z" fill="#B55B52"/>
<path opacity="0.4" d="M153.154 211.364L149.723 198.81C149.723 198.81 153.422 218.662 153.444 219.082C153.466 219.502 153.154 211.364 153.154 211.364Z" fill="black"/>
<path d="M204.088 307.244C204.088 307.244 200.685 305.412 200.193 306.708C199.701 308.004 204.088 307.244 204.088 307.244Z" stroke="#407BFF" stroke-miterlimit="10"/>
<path d="M204.088 307.7C204.088 307.7 200.468 308.598 200.519 309.401C200.57 310.205 204.088 307.7 204.088 307.7Z" stroke="#407BFF" stroke-miterlimit="10"/>
<path d="M210.481 301.683L213.32 303.993C213.484 304.127 213.62 304.293 213.718 304.481C213.816 304.669 213.875 304.875 213.89 305.087C213.906 305.298 213.878 305.511 213.808 305.711C213.739 305.911 213.629 306.095 213.486 306.252L204.168 316.388L204.016 316.533C203.582 316.895 201.605 318.444 200.649 317.662C199.571 316.779 202.821 313.506 203.01 311.798C203.176 310.487 203.509 307.751 203.654 306.556C203.698 306.181 203.878 305.836 204.161 305.586L208.505 301.712C208.78 301.479 209.127 301.349 209.488 301.344C209.848 301.339 210.2 301.459 210.481 301.683Z" fill="#263238"/>
<path d="M152.641 319.689C152.641 319.689 150.961 316.171 150.042 316.793C149.122 317.416 152.641 319.689 152.641 319.689Z" stroke="#407BFF" stroke-miterlimit="10"/>
<path d="M152.373 319.689C152.373 319.689 148.637 317.655 148.203 318.835C147.768 320.015 152.373 319.689 152.373 319.689Z" stroke="#407BFF" stroke-miterlimit="10"/>
<path d="M161.727 318.835H152.641C150.717 320.569 148.414 321.829 145.915 322.513C142.252 323.331 142.592 323.961 142.592 323.961C142.592 323.961 141.984 325.525 144.221 325.858C146.458 326.191 160.489 326.27 162.263 325.858C164.037 325.445 161.727 318.835 161.727 318.835Z" fill="#263238"/>
<path d="M136.206 109.454L134.758 109.244C134.831 109.363 134.93 109.464 135.046 109.54C135.163 109.617 135.295 109.667 135.433 109.687C135.571 109.707 135.712 109.696 135.845 109.656C135.979 109.616 136.102 109.547 136.206 109.454Z" fill="#263238"/>
<path d="M130.581 108.962L129.394 108.745C129.447 108.849 129.523 108.939 129.617 109.009C129.71 109.078 129.819 109.125 129.934 109.146C130.048 109.167 130.167 109.162 130.279 109.13C130.391 109.098 130.494 109.04 130.581 108.962Z" fill="#263238"/>
<path opacity="0.2" d="M140.325 121.929C140.08 122.685 139.628 123.357 139.02 123.869C138.412 124.381 137.673 124.712 136.886 124.825C136.955 124.024 136.844 123.217 136.561 122.464C137.831 122.42 139.093 122.24 140.325 121.929Z" fill="black"/>
<path opacity="0.2" d="M127.424 153.141C126.961 153.256 126.512 153.343 126.07 153.416L126.838 146.603L127.424 153.141Z" fill="black"/>
</svg>
